<?xml version="1.0" encoding="utf-8"?>
<!-- Generator: Adobe Illustrator 27.5.0, SVG Export Plug-In . SVG Version: 6.00 Build 0)  -->
<svg version="1.1" id="_x31_" xmlns="http://www.w3.org/2000/svg" xmlns:xlink="http://www.w3.org/1999/xlink" x="0px" y="0px"
	 viewBox="0 0 450 450" style="enable-background:new 0 0 450 450;" xml:space="preserve">
<rect style="fill:#000E30;" width="450" height="450"/>
<g>
	<path style="fill:#001142;" d="M450,140.828C401.224,68.546,318.569,20.92,225,20.92c-93.57,0-176.224,47.625-225,119.907v302.686
		c1.476,2.186,2.989,4.346,4.526,6.487h65.59C29.185,409.825,3.75,353.917,3.75,292.17C3.75,170.172,103.002,70.92,225,70.92
		s221.25,99.252,221.25,221.249c0,61.747-25.436,117.655-66.366,157.83h65.59c1.537-2.142,3.051-4.301,4.526-6.487V140.828z"/>
	<path style="fill:#03164A;" d="M446.25,292.17C446.25,170.172,346.998,70.92,225,70.92S3.75,170.172,3.75,292.17
		c0,61.747,25.435,117.655,66.366,157.83h88.433C97.03,424.001,53.75,363.046,53.75,292.17c0-94.427,76.822-171.249,171.25-171.249
		s171.25,76.822,171.25,171.249c0,70.876-43.28,131.831-104.799,157.83h88.433C420.814,409.825,446.25,353.917,446.25,292.17z"/>
	<path style="fill:#061C51;" d="M396.25,292.17c0-94.427-76.822-171.249-171.25-171.249S53.75,197.743,53.75,292.17
		c0,70.876,43.28,131.831,104.799,157.83h132.902C352.97,424.001,396.25,363.046,396.25,292.17z M225,413.42
		c-66.858,0-121.25-54.393-121.25-121.25S158.142,170.92,225,170.92c66.857,0,121.25,54.392,121.25,121.249
		S291.857,413.42,225,413.42z"/>
	<path style="fill:#092159;" d="M225,170.92c-66.858,0-121.25,54.392-121.25,121.249S158.142,413.42,225,413.42
		c66.857,0,121.25-54.393,121.25-121.25S291.857,170.92,225,170.92z M225,363.42c-39.35,0-71.249-31.9-71.249-71.25
		c0-39.351,31.899-71.249,71.249-71.249c39.35,0,71.25,31.899,71.25,71.249C296.25,331.52,264.35,363.42,225,363.42z"/>
	
		<ellipse transform="matrix(0.9731 -0.2305 0.2305 0.9731 -61.2907 59.7352)" style="fill:#0C2661;" cx="225" cy="292.17" rx="71.25" ry="71.25"/>
</g>
<g>
	<polygon style="fill:#001142;" points="124.471,341.02 124.471,450 283.178,449.154 207.301,397.872 220.093,385.08 
		157.131,322.118 138.217,320.428 	"/>
	<polygon style="fill:#2B4482;" points="124.471,341.02 117.623,324.328 101.319,334.586 94.721,319.209 0,413.93 0,450 
		124.471,450 124.471,446.397 	"/>
	<polygon style="fill:#D0E9FC;" points="124.471,341.02 138.217,320.428 157.131,322.118 154.673,319.661 124.471,289.459 
		124.471,314.476 	"/>
	<polygon style="fill:#E3F2FF;" points="117.623,324.328 124.471,341.02 124.471,314.476 124.471,289.459 103.12,310.81 
		94.721,319.209 101.319,334.586 	"/>
	<polygon style="fill:#001142;" points="353.387,305.395 336.907,330.082 336.907,397.872 336.907,450 450,450 450,381.359 
		387.208,318.567 	"/>
	<polygon style="fill:#2B4482;" points="336.907,450 336.907,330.082 328.696,310.07 314.865,327.336 301.24,303.934 
		220.093,385.08 155.18,449.994 	"/>
	<polygon style="fill:#D0E9FC;" points="336.907,330.082 353.387,305.395 387.208,318.567 373.116,304.476 336.907,268.267 
		336.907,298.259 	"/>
	<polygon style="fill:#E3F2FF;" points="328.696,310.07 336.907,330.082 336.907,298.259 336.907,268.267 311.31,293.864 
		301.24,303.934 314.865,327.336 	"/>
</g>
<g>
	<polygon style="fill:#D0E9FC;" points="225,363.291 225,449.506 405.449,449.506 	"/>
	<polygon style="fill:#E3F2FF;" points="218.012,360.482 34.938,450 224.925,450 224.925,363.785 	"/>
</g>
<g>
	<g>
		<g>
			<path style="fill:#E3F2FF;" d="M210.892,381.844c0,9.961-8.075,18.036-18.036,18.036c-9.962,0-18.037-8.075-18.037-18.036
				c0-9.961,8.075-18.036,18.037-18.036C202.817,363.808,210.892,371.883,210.892,381.844z"/>
			<circle style="fill:#E3F2FF;" cx="154.496" cy="392.212" r="11.22"/>
			<path style="fill:#E3F2FF;" d="M187.373,385.972c0,8.078-6.549,14.628-14.628,14.628c-8.079,0-14.628-6.55-14.628-14.628
				c0-8.079,6.549-14.628,14.628-14.628C180.824,371.344,187.373,377.893,187.373,385.972z"/>
			<circle style="fill:#E3F2FF;" cx="209.009" cy="382.746" r="14.628"/>
			<path style="fill:#E3F2FF;" d="M151.326,403.432c0,8.078-6.549,14.628-14.628,14.628c-8.079,0-14.628-6.55-14.628-14.628
				c0-8.079,6.549-14.629,14.628-14.629C144.776,388.803,151.326,395.353,151.326,403.432z"/>
			<path style="fill:#E3F2FF;" d="M221.336,339.103c0,3.404-2.76,6.165-6.165,6.165c-3.404,0-6.165-2.761-6.165-6.165
				c0-3.405,2.76-6.165,6.165-6.165C218.576,332.938,221.336,335.697,221.336,339.103z"/>
			<path style="fill:#E3F2FF;" d="M224.547,350.296c0,4.136-3.789,7.489-8.462,7.489c-4.673,0-8.462-3.354-8.462-7.489
				c0-4.137,3.789-7.49,8.462-7.49C220.758,342.806,224.547,346.159,224.547,350.296z"/>
			<path style="fill:#E3F2FF;" d="M219.546,365.518c-1.414,4.59-6.764,7.015-11.949,5.417c-5.186-1.598-8.243-6.613-6.829-11.203
				c1.415-4.589,6.764-7.015,11.95-5.417C217.903,355.912,220.96,360.928,219.546,365.518z"/>
		</g>
	</g>
	<g>
		<g>
			<path style="fill:#E3F2FF;" d="M130.727,423.997c-5.765,8.124-17.024,10.035-25.147,4.271
				c-8.123-5.766-10.035-17.024-4.27-25.148c5.765-8.123,17.024-10.035,25.147-4.27
				C134.581,404.615,136.493,415.874,130.727,423.997z"/>
			<path style="fill:#E3F2FF;" d="M97.494,424.322c-6.505,9.166-19.209,11.323-28.375,4.818
				c-9.166-6.505-11.323-19.209-4.818-28.375c6.505-9.166,19.209-11.323,28.374-4.817
				C101.842,402.453,103.999,415.156,97.494,424.322z"/>
			<path style="fill:#E3F2FF;" d="M140.599,432.109c-4.676,6.588-13.807,8.139-20.395,3.463c-6.588-4.676-8.139-13.807-3.463-20.396
				c4.676-6.588,13.807-8.139,20.395-3.463C143.724,416.39,145.274,425.521,140.599,432.109z"/>
			<path style="fill:#E3F2FF;" d="M69.657,407.128c-4.676,6.588-13.807,8.139-20.395,3.463c-6.588-4.676-8.139-13.807-3.463-20.395
				c4.676-6.588,13.807-8.139,20.395-3.463C72.782,391.408,74.333,400.539,69.657,407.128z"/>
			<path style="fill:#E3F2FF;" d="M163.981,395.186c-1.971,2.776-5.819,3.43-8.596,1.459c-2.776-1.971-3.43-5.818-1.459-8.596
				c1.971-2.776,5.819-3.43,8.596-1.459C165.298,388.561,165.952,392.409,163.981,395.186z"/>
			<path style="fill:#E3F2FF;" d="M160.122,406.173c-2.394,3.373-7.424,3.915-11.235,1.21c-3.811-2.705-4.96-7.632-2.566-11.005
				c2.394-3.373,7.424-3.915,11.235-1.211C161.367,397.872,162.516,402.799,160.122,406.173z"/>
			<path style="fill:#E3F2FF;" d="M147.233,415.691c-3.809,2.925-9.576,1.806-12.88-2.498c-3.304-4.304-2.894-10.163,0.915-13.088
				c3.81-2.924,9.576-1.806,12.88,2.498C151.453,406.907,151.043,412.768,147.233,415.691z"/>
		</g>
	</g>
	<g>
		<g>
			
				<ellipse transform="matrix(0.7071 -0.7071 0.7071 0.7071 -195.1878 292.4624)" style="fill:#D0E9FC;" cx="255.439" cy="381.844" rx="18.036" ry="18.036"/>
			<circle style="fill:#D0E9FC;" cx="293.8" cy="392.212" r="11.22"/>
			<path style="fill:#D0E9FC;" d="M260.922,385.972c0,8.078,6.55,14.628,14.628,14.628c8.079,0,14.629-6.55,14.629-14.628
				c0-8.079-6.55-14.628-14.629-14.628C267.472,371.344,260.922,377.893,260.922,385.972z"/>
			<circle style="fill:#D0E9FC;" cx="239.286" cy="382.746" r="14.628"/>
			<circle style="fill:#D0E9FC;" cx="299.503" cy="385.972" r="14.628"/>
			<path style="fill:#D0E9FC;" d="M296.97,403.432c0,8.078,6.549,14.628,14.628,14.628s14.628-6.55,14.628-14.628
				c0-8.079-6.549-14.629-14.628-14.629S296.97,395.353,296.97,403.432z"/>
			<path style="fill:#D0E9FC;" d="M228.377,329.949c0,3.405,2.761,6.165,6.165,6.165c3.405,0,6.165-2.76,6.165-6.165
				c0-3.404-2.76-6.164-6.165-6.164C231.138,323.785,228.377,326.545,228.377,329.949z"/>
			<path style="fill:#D0E9FC;" d="M231.238,350.063c0,3.404,2.76,6.165,6.165,6.165c3.404,0,6.164-2.761,6.164-6.165
				c0-3.405-2.76-6.165-6.164-6.165C233.998,343.897,231.238,346.657,231.238,350.063z"/>
			<path style="fill:#D0E9FC;" d="M226.08,341.124c0,4.136,3.789,7.489,8.462,7.489c4.674,0,8.462-3.354,8.462-7.489
				c0-4.137-3.788-7.49-8.462-7.49C229.869,333.634,226.08,336.987,226.08,341.124z"/>
			<path style="fill:#D0E9FC;" d="M229.897,361.757c1.414,4.59,6.765,7.015,11.949,5.417c5.186-1.598,8.243-6.613,6.829-11.203
				c-1.415-4.589-6.765-7.015-11.95-5.417C231.541,352.151,228.483,357.168,229.897,361.757z"/>
			<path style="fill:#D0E9FC;" d="M234.179,368.326c1.414,4.59,6.765,7.015,11.949,5.417c5.186-1.598,8.243-6.613,6.828-11.203
				c-1.414-4.589-6.764-7.015-11.949-5.417C235.822,358.721,232.765,363.736,234.179,368.326z"/>
		</g>
	</g>
	<g>
		<g>
			<path style="fill:#D0E9FC;" d="M324.069,424.093c6.321,7.698,17.687,8.814,25.385,2.493c7.698-6.321,8.815-17.686,2.494-25.385
				c-6.321-7.698-17.688-8.815-25.386-2.493C318.864,405.029,317.748,416.395,324.069,424.093z"/>
			<path style="fill:#D0E9FC;" d="M365.563,403.436c3.933,4.789,11.002,5.483,15.791,1.551c4.789-3.932,5.483-11.002,1.551-15.791
				c-3.932-4.789-11.002-5.483-15.791-1.551C362.325,391.578,361.631,398.647,365.563,403.436z"/>
			<path style="fill:#D0E9FC;" d="M344.865,412.357c5.127,6.244,14.345,7.149,20.588,2.023c6.244-5.127,7.149-14.345,2.022-20.588
				c-5.127-6.244-14.344-7.149-20.588-2.022C340.644,396.897,339.738,406.114,344.865,412.357z"/>
			<path style="fill:#D0E9FC;" d="M314.792,432.878c5.127,6.243,14.345,7.149,20.588,2.022c6.244-5.127,7.149-14.345,2.022-20.588
				c-5.127-6.244-14.344-7.149-20.588-2.022C310.571,417.416,309.665,426.634,314.792,432.878z"/>
			<path style="fill:#D0E9FC;" d="M363.377,397.157c5.127,6.244,14.345,7.149,20.588,2.022c6.244-5.127,7.15-14.344,2.023-20.588
				c-5.127-6.244-14.344-7.149-20.588-2.022C359.155,381.696,358.25,390.914,363.377,397.157z"/>
			<path style="fill:#D0E9FC;" d="M383.805,402.977c5.126,6.243,14.344,7.148,20.588,2.021c6.243-5.126,7.148-14.344,2.022-20.588
				c-5.127-6.243-14.345-7.149-20.589-2.022C379.583,387.515,378.678,396.732,383.805,402.977z"/>
			<path style="fill:#D0E9FC;" d="M284.162,389.714c2.161,2.632,6.045,3.014,8.677,0.853c2.631-2.16,3.013-6.045,0.853-8.677
				c-2.161-2.631-6.046-3.013-8.677-0.852C282.383,383.198,282.002,387.083,284.162,389.714z"/>
			<path style="fill:#D0E9FC;" d="M299.137,403.443c2.16,2.631,6.045,3.013,8.677,0.852c2.631-2.16,3.013-6.045,0.852-8.677
				c-2.16-2.631-6.045-3.013-8.676-0.852C297.357,396.927,296.976,400.811,299.137,403.443z"/>
			<path style="fill:#D0E9FC;" d="M289.477,399.808c2.625,3.196,7.681,3.384,11.293,0.418c3.611-2.965,4.412-7.961,1.787-11.157
				c-2.625-3.197-7.681-3.385-11.293-0.419C287.653,391.615,286.853,396.61,289.477,399.808z"/>
			<path style="fill:#D0E9FC;" d="M305.521,413.332c4.006,2.649,9.68,1.129,12.673-3.397c2.994-4.525,2.174-10.342-1.832-12.991
				c-4.005-2.65-9.679-1.13-12.673,3.396C300.696,404.865,301.517,410.682,305.521,413.332z"/>
			<path style="fill:#D0E9FC;" d="M312.999,415.691c4.006,2.649,9.68,1.129,12.673-3.397c2.993-4.525,2.174-10.342-1.832-12.991
				c-4.005-2.649-9.679-1.129-12.673,3.396C308.174,407.226,308.994,413.042,312.999,415.691z"/>
		</g>
	</g>
</g>
<g>
	<g>
		<g>
			<g>
				<g>
					<path style="fill:#7895B7;" d="M352.558,68.511c-8.058-0.15-14.698-5.871-16.33-13.42c0.266,9.979,8.343,18.077,18.424,18.264
						l0.092-4.948C354.026,68.485,353.298,68.524,352.558,68.511z"/>
				</g>
			</g>
			<g>
				<g>
					<path style="fill:#3F67C0;" d="M362.213,37.235c4.726,3.104,7.806,8.489,7.692,14.559c-0.16,8.666-6.768,15.695-15.162,16.612
						l-0.092,4.948c10.372,0.192,18.935-8.059,19.128-18.431C373.927,46.986,369.124,40.111,362.213,37.235z"/>
				</g>
			</g>
			<g>
				<g>
					<path style="fill:#859FD7;" d="M352.558,68.511c0.74,0.014,1.469-0.026,2.186-0.104l0.605-32.61
						c-10.371-0.192-18.935,8.059-19.127,18.431c-0.006,0.29-0.002,0.577,0.006,0.863C337.859,62.64,344.5,68.361,352.558,68.511z"
						/>
				</g>
			</g>
			<g>
				<g>
					<path style="fill:#DFE8F0;" d="M352.558,68.511c0.74,0.014,1.469-0.026,2.186-0.104l0.605-32.61
						c-10.371-0.192-18.935,8.059-19.127,18.431c-0.006,0.29-0.002,0.577,0.006,0.863C337.859,62.64,344.5,68.361,352.558,68.511z"
						/>
				</g>
			</g>
			<g>
				<g>
					<path style="fill:#7492B5;" d="M354.743,68.407c8.395-0.917,15.002-7.946,15.162-16.612c0.113-6.071-2.967-11.455-7.692-14.559
						c-2.118-0.882-4.432-1.393-6.864-1.438L354.743,68.407z"/>
				</g>
			</g>
			<g>
				<g>
					<path style="fill:#7895B7;" d="M354.743,68.407c8.395-0.917,15.002-7.946,15.162-16.612c0.113-6.071-2.967-11.455-7.692-14.559
						c-2.118-0.882-4.432-1.393-6.864-1.438L354.743,68.407z"/>
				</g>
			</g>
		</g>
		<g>
			<g>
				<g>
					<path style="fill:#859FD7;" d="M347.996,45.579c0.02-1.048,0.885-1.882,1.933-1.862c0.857,0.016,1.57,0.598,1.791,1.382
						c-0.003-1.259-1.01-2.29-2.274-2.313c-1.28-0.023-2.339,0.995-2.362,2.276c-0.023,1.265,0.97,2.31,2.227,2.359
						C348.535,47.169,347.98,46.436,347.996,45.579z"/>
				</g>
			</g>
			<g>
				<g>
					<path style="fill:#DAE4EE;" d="M351.722,45.147c0-0.017-0.002-0.033-0.002-0.049c-0.221-0.784-0.934-1.366-1.791-1.382
						c-1.048-0.02-1.913,0.814-1.933,1.862c-0.016,0.857,0.539,1.591,1.314,1.841c0.017,0,0.032,0.003,0.049,0.003
						C350.641,47.447,351.698,46.428,351.722,45.147z"/>
				</g>
			</g>
		</g>
		<g>
			<g>
				<g>
					<path style="fill:#859FD7;" d="M342.006,58.318c0.035-1.903,1.606-3.417,3.51-3.382c1.556,0.029,2.851,1.085,3.252,2.509
						c-0.005-2.286-1.834-4.159-4.13-4.201c-2.326-0.043-4.247,1.808-4.29,4.133c-0.042,2.296,1.761,4.193,4.045,4.284
						C342.984,61.208,341.977,59.874,342.006,58.318z"/>
				</g>
			</g>
			<g>
				<g>
					<path style="fill:#DAE4EE;" d="M348.77,57.534c0.001-0.03-0.003-0.059-0.003-0.088c-0.401-1.424-1.696-2.48-3.252-2.509
						c-1.903-0.035-3.475,1.479-3.51,3.382c-0.028,1.556,0.979,2.889,2.387,3.343c0.029,0.001,0.059,0.005,0.089,0.006
						C346.807,61.711,348.727,59.86,348.77,57.534z"/>
				</g>
			</g>
		</g>
		<g>
			<g>
				<g>
					<path style="fill:#213256;" d="M349.874,69.279c0.02-1.048,0.885-1.882,1.933-1.862c0.857,0.016,1.569,0.597,1.791,1.381
						c-0.003-1.258-1.01-2.29-2.275-2.313c-1.281-0.024-2.339,0.995-2.362,2.276c-0.023,1.264,0.97,2.31,2.228,2.359
						C350.413,70.869,349.858,70.136,349.874,69.279z"/>
				</g>
			</g>
			<g>
				<g>
					<path style="fill:#859FD7;" d="M353.599,68.847c0.001-0.016-0.001-0.032-0.001-0.049c-0.222-0.784-0.935-1.365-1.791-1.381
						c-1.048-0.019-1.913,0.814-1.933,1.862c-0.016,0.857,0.539,1.59,1.314,1.841c0.016,0.001,0.032,0.003,0.049,0.003
						C352.518,71.146,353.575,70.127,353.599,68.847z"/>
				</g>
			</g>
		</g>
		<g>
			<g>
				<g>
					<path style="fill:#3B64BE;" d="M361.656,44.279c0.014-0.721,0.609-1.295,1.33-1.282c0.59,0.011,1.081,0.412,1.233,0.951
						c-0.002-0.866-0.695-1.576-1.565-1.592c-0.882-0.017-1.61,0.685-1.627,1.567c-0.016,0.871,0.668,1.59,1.533,1.624
						C362.027,45.374,361.645,44.869,361.656,44.279z"/>
				</g>
			</g>
			<g>
				<g>
					<path style="fill:#859FD7;" d="M364.221,43.981c0-0.011-0.001-0.022-0.001-0.034c-0.152-0.54-0.643-0.94-1.233-0.951
						c-0.721-0.013-1.316,0.561-1.33,1.282c-0.011,0.59,0.371,1.095,0.904,1.268c0.012,0.001,0.023,0.002,0.034,0.002
						C363.477,45.565,364.204,44.863,364.221,43.981z"/>
				</g>
			</g>
		</g>
		<g>
			<g>
				<g>
					<path style="fill:#3B64BE;" d="M355.154,54.81c0.03-1.637,1.382-2.939,3.019-2.909c1.338,0.025,2.451,0.933,2.797,2.158
						c-0.005-1.965-1.578-3.576-3.553-3.613c-2-0.037-3.652,1.554-3.689,3.555c-0.037,1.975,1.514,3.606,3.478,3.684
						C355.995,57.294,355.129,56.147,355.154,54.81z"/>
				</g>
			</g>
			<g>
				<g>
					<path style="fill:#859FD7;" d="M360.972,54.136c0-0.026-0.002-0.051-0.002-0.077c-0.346-1.225-1.459-2.133-2.797-2.158
						c-1.637-0.03-2.988,1.272-3.019,2.909c-0.025,1.337,0.841,2.484,2.052,2.875c0.026,0.001,0.051,0.005,0.076,0.005
						C359.283,57.727,360.935,56.136,360.972,54.136z"/>
				</g>
			</g>
		</g>
		<g>
			<g>
				<g>
					<path style="fill:#213256;" d="M363.278,65.123c0.022-1.19,1.005-2.137,2.195-2.114c0.972,0.018,1.781,0.678,2.033,1.568
						c-0.004-1.429-1.147-2.6-2.583-2.626c-1.454-0.027-2.654,1.13-2.682,2.584c-0.026,1.435,1.101,2.622,2.528,2.678
						C363.891,66.929,363.261,66.095,363.278,65.123z"/>
				</g>
			</g>
			<g>
				<g>
					<path style="fill:#859FD7;" d="M367.508,64.632c0.001-0.019-0.001-0.037-0.001-0.056c-0.252-0.89-1.062-1.55-2.033-1.568
						c-1.19-0.022-2.173,0.924-2.195,2.114c-0.018,0.973,0.612,1.806,1.492,2.09c0.019,0.001,0.037,0.003,0.056,0.004
						C366.28,67.244,367.481,66.086,367.508,64.632z"/>
				</g>
			</g>
		</g>
	</g>
</g>
<g>
	<g>
		<rect x="215.856" y="284.815" style="fill:#E3F2FF;" width="9.343" height="155.618"/>
		<rect x="225.199" y="284.815" style="fill:#D0E9FC;" width="9.343" height="155.618"/>
	</g>
	<g>
		<g>
			<path style="fill:#FF3351;" d="M239.861,107.702h-14.7v122.551h15.492c2.428-18.252,8.083-63.535,8.28-85.003
				C249.038,133.807,244.806,119.94,239.861,107.702z"/>
			<path style="fill:#D62E40;" d="M245.303,107.702h-5.441c4.944,12.238,9.177,26.105,9.072,37.548
				c-0.197,21.468-5.852,66.751-8.28,85.003h8.28l7.321-57.934C259.071,150.037,255.15,127.649,245.303,107.702z"/>
			<path style="fill:#FF3351;" d="M225.162,78.257v22.816h11.892c-4.15-9.38-8.325-17.171-10.558-21.171L225.162,78.257z"/>
			<path style="fill:#D62E40;" d="M231.318,85.846l-4.822-5.943c2.232,4.001,6.407,11.791,10.558,21.171h4.724
				C238.719,95.778,235.24,90.679,231.318,85.846z"/>
		</g>
		<g>
			<g>
				<g>
					<g>
						<path style="fill:#FF475A;" d="M204.697,107.702c-9.847,19.948-13.767,42.335-10.951,64.617l7.322,57.934h23.771
							l0.322-122.551H204.697z"/>
					</g>
				</g>
				<g>
					<g>
						<polygon style="fill:#FF475A;" points="225.162,107.702 224.84,230.253 225.162,230.253 225.162,107.702 						"/>
					</g>
				</g>
				<g>
					<g>
						<path style="fill:#C90B26;" d="M225.162,101.074v6.628h20.141c-1.105-2.239-2.27-4.454-3.525-6.628H225.162z"/>
					</g>
				</g>
				<g>
					<g>
						<path style="fill:#D62E40;" d="M225.162,101.074h-16.938c-1.255,2.174-2.421,4.389-3.527,6.628h20.464V101.074z"/>
					</g>
				</g>
				<g>
					<g>
						<rect x="225.162" y="101.074" style="fill:#C90B26;" width="0" height="6.628"/>
					</g>
				</g>
				<g>
					<g>
						<path style="fill:#FF4A65;" d="M218.683,85.846c-3.922,4.833-7.402,9.933-10.459,15.228h16.938V78.257L218.683,85.846z"/>
					</g>
				</g>
			</g>
			<g>
				<g>
					<g>
						<g>
							<path style="fill:#FFB93B;" d="M224.84,246.009h7.942c8.921,0,16.151-6.983,16.151-15.599v-0.157H224.84V246.009z"/>
						</g>
					</g>
					<g>
						<g>
							<path style="fill:#FF475A;" d="M245.725,187.638l22.65,16.926c3.798,2.837,6.491,6.83,7.645,11.329l8.095,31.546
								c0.887,3.459,0.206,8.815-3.484,8.86l-2.108-1.999c-2.191,0.028-4.21-1.155-5.192-3.049l-10.916-21h-21.76L245.725,187.638z"
								/>
						</g>
					</g>
					<g>
						<g>
							<path style="fill:#C90B26;" d="M245.246,192.5l23.129,15.398c3.798,2.837,6.491,6.83,7.645,11.33l8.095,31.546
								c0.887,3.46-1.794,6.814-5.484,6.86l-0.108,0.002c-2.191,0.027-4.21-1.156-5.192-3.049l-10.916-21.001l-21.76-3.333
								L245.246,192.5z"/>
						</g>
					</g>
				</g>
				<g>
					<g>
						<g>
							<path style="fill:#FFCE76;" d="M225.162,246.009h-7.943c-8.919,0-16.151-6.983-16.151-15.599v-0.157h24.095V246.009z"/>
						</g>
					</g>
				</g>
			</g>
		</g>
		<path style="fill:#D62E40;" d="M226,124.667c-0.054-0.001-0.106-0.008-0.16-0.008c-8.843,0-16.01,6.924-16.01,15.463
			c0,8.54,7.167,15.463,16.01,15.463c0.054,0,0.106-0.007,0.16-0.008c8.768-0.084,15.85-6.968,15.85-15.456
			C241.85,131.635,234.768,124.751,226,124.667z"/>
		<g>
			<path style="fill:#B70404;" d="M224.84,150.399c-6.448,0-11.676-5.048-11.676-11.277c0-6.229,5.228-11.277,11.676-11.277
				c0.054,0,0.106,0.007,0.16,0.008v-4.186c-0.054-0.001-0.106-0.008-0.16-0.008c-8.843,0-16.01,6.924-16.01,15.463
				c0,8.54,7.167,15.463,16.01,15.463c0.054,0,0.106-0.007,0.16-0.008v-4.186C224.946,150.392,224.894,150.399,224.84,150.399z"/>
			<path style="fill:#C90B26;" d="M240.85,139.122c0-8.487-7.082-15.371-15.85-15.455v4.186c6.373,0.084,11.516,5.093,11.516,11.269
				c0,6.177-5.143,11.186-11.516,11.27v4.186C233.768,154.494,240.85,147.609,240.85,139.122z"/>
			<path style="fill:#001142;" d="M213.164,139.122c0,6.229,5.228,11.277,11.676,11.277c0.054,0,0.106-0.007,0.16-0.008v-22.539
				c-0.054,0-0.106-0.008-0.16-0.008C218.392,127.845,213.164,132.894,213.164,139.122z"/>
			<path style="fill:#092159;" d="M236.516,139.122c0-6.176-5.143-11.185-11.516-11.269v22.539
				C231.373,150.308,236.516,145.299,236.516,139.122z"/>
		</g>
		<path style="fill:#F1F2F2;" d="M221.074,135c0,0.823-0.667,1.491-1.491,1.491c-0.824,0-1.491-0.668-1.491-1.491
			s0.667-1.491,1.491-1.491C220.407,133.509,221.074,134.177,221.074,135z"/>
		<g style="opacity:0.55;">
			<path style="fill:#FF6178;" d="M203.768,231.798c0,0-0.964-9.174-2.169-22.94c-0.602-6.884-1.27-14.919-1.871-23.54
				c-0.297-4.311-0.594-8.765-0.839-13.298c-0.253-4.531-0.474-9.138-0.606-13.753c-0.158-4.612-0.189-9.237-0.109-13.795
				c0.056-1.192,0.087-2.256,0.204-3.421c0.106-1.151,0.227-2.289,0.404-3.398c0.314-2.233,0.776-4.409,1.292-6.527
				c2.125-8.473,5.45-15.914,8.641-22.047c3.212-6.137,6.352-10.979,8.629-14.3c2.286-3.319,3.73-5.113,3.73-5.113
				s-1.379,1.845-3.54,5.239c-2.153,3.395-5.109,8.335-8.079,14.544c-2.951,6.202-5.97,13.694-7.747,22.052
				c-0.43,2.088-0.803,4.223-1.029,6.396c-0.135,1.089-0.209,2.175-0.271,3.262c-0.073,1.071-0.066,2.266-0.08,3.335
				c0.068,4.499,0.247,9.075,0.554,13.652c0.281,4.577,0.65,9.154,1.049,13.656c0.39,4.503,0.83,8.931,1.267,13.215
				c0.878,8.568,1.805,16.557,2.628,23.4c1.649,13.69,2.906,22.784,2.906,22.784L203.768,231.798z"/>
		</g>
		<g>
			<g>
				<path style="fill:#FF3351;" d="M204.277,187.638l-22.652,16.926c-3.796,2.837-6.491,6.83-7.645,11.329l-8.095,31.546
					c-0.887,3.459-1.204,8.815,2.484,8.86l3.109-1.999c2.193,0.028,4.209-1.155,5.193-3.049l10.916-21l21.419-0.043L204.277,187.638
					z"/>
			</g>
		</g>
		<g>
			<g>
				<path style="fill:#D62E40;" d="M204.735,191.767l-23.11,16.926c-3.796,2.837-6.491,6.83-7.645,11.33l-8.095,31.546
					c-0.887,3.46,1.796,6.814,5.484,6.86l0.109,0.002c2.193,0.027,4.209-1.155,5.193-3.049l10.916-21.001l21.419-4.171
					L204.735,191.767z"/>
			</g>
		</g>
	</g>
	<polygon style="opacity:0.15;fill:#D62E40;" points="204.735,191.767 241.257,228.288 240.653,230.253 209.006,230.21 	"/>
	<polygon style="opacity:0.68;fill:#FFCF7B;" points="225,417.508 218.654,417.508 217.625,266.003 225.162,253.051 	"/>
	<polygon style="opacity:0.68;fill:#F9BA5D;" points="225.323,417.508 231.669,417.508 232.698,266.003 225.162,253.051 	"/>
	<polygon style="opacity:0.68;fill:#FFCF7B;" points="225.088,417.508 222.221,417.508 221.756,257.636 225.162,253.051 	"/>
	<polygon style="opacity:0.68;fill:#F9BA5D;" points="225.234,417.508 228.102,417.508 228.567,257.636 225.162,253.051 	"/>
	<g>
		<g>
			<path style="fill:#FF3636;" d="M225.162,298.694v-47.045h-0.131c-7.126,0-12.974,8.005-12.883,18.74
				C212.245,281.874,225.162,298.694,225.162,298.694z"/>
		</g>
	</g>
	<g>
		<g>
			<path style="fill:#FF2929;" d="M225.162,298.694v-47.045h0.13c7.127,0,12.974,8.005,12.883,18.74
				C238.077,281.874,225.162,298.694,225.162,298.694z"/>
		</g>
	</g>
	<g>
		<g>
			<path style="fill:#FFCF7B;" d="M224.805,284.815l0.356,0.349v-32.112h-0.09c-4.864,0-8.809,5.674-8.809,12.671l0.015,0.121
				C217.224,273.565,220.299,280.406,224.805,284.815z"/>
		</g>
	</g>
	<g>
		<g>
			<path style="fill:#FFC95C;" d="M225.517,284.815l-0.355,0.349v-10.788v-21.324h0.088c4.864,0,8.809,5.674,8.809,12.671
				l-0.015,0.121C233.099,273.565,230.023,280.406,225.517,284.815z"/>
		</g>
	</g>
	<path style="fill:#FFC95C;" d="M221.065,258.667l0.018-0.397c0.107-2.388,1.68-4.46,3.951-5.206l0.038-0.013v20.199l-0.044-0.066
		C222.222,268.878,220.836,263.801,221.065,258.667z"/>
	<path style="fill:#FFC95C;" d="M229.078,258.667l-0.018-0.397c-0.106-2.388-1.68-4.46-3.951-5.206l-0.038-0.013v20.199l0.043-0.066
		C227.922,268.878,229.308,263.801,229.078,258.667z"/>
</g>
<g>
	<g>
		<path style="fill:#FFFFFF;" d="M102.255,217.216c1.826,0,3.307-1.48,3.307-3.307s-1.48-3.307-3.307-3.307
			c-1.826,0-3.306,1.48-3.306,3.307S100.429,217.216,102.255,217.216z"/>
	</g>
	<path style="fill:#FFFFFF;" d="M450,435.457v-45.181c-4.959-4.609-11.484-7.414-18.638-7.414c-10.699,0-19.999,6.264-24.742,15.478
		c-2.775-1.411-5.907-2.223-9.233-2.223c-5.497,0-10.476,2.182-14.146,5.713c-2.577-1.294-5.478-2.04-8.558-2.04
		c-8.749,0-16.108,5.885-18.378,13.907c-2.398-1.084-5.053-1.702-7.857-1.702c-5.972,0-11.301,2.741-14.806,7.031
		c-1.964-10.499-10.87-18.704-21.695-19.558c-7.281-0.574-13.944,2.1-18.706,6.722c0.308-4.607-2.034-9.188-6.372-11.506
		c-5.163-2.76-11.429-1.401-15.03,2.933c-1.075-2.246-2.838-4.188-5.203-5.452c-3.119-1.668-6.636-1.819-9.729-0.732
		c-1.507-8.994-9.308-15.855-18.73-15.855c-5.193,0-9.896,2.087-13.328,5.462c-2.837-1.684-6.139-2.668-9.677-2.668
		c-7.751,0-14.406,4.645-17.367,11.297c-2.245-1.031-4.733-1.621-7.365-1.621c-7.619,0-14.094,4.825-16.586,11.579
		c-2.581-0.758-5.31-1.172-8.137-1.172c-13.15,0-24.237,8.806-27.706,20.839h-3.097c-3.381-7.037-10.554-11.907-18.883-11.907
		c-6.109,0-11.591,2.63-15.422,6.799c-2.624-7.423-9.685-12.752-18.007-12.752c-3.557,0-6.875,0.99-9.728,2.682
		c-2.023-0.805-4.223-1.26-6.532-1.26c-4.87,0-9.28,1.969-12.479,5.153c-4.975-8.667-14.313-14.509-25.022-14.509
		c-14.898,0-27.156,11.299-28.678,25.794H0v3.045V450h450V435.457z M269.974,411.307c-0.063-0.067-0.126-0.134-0.19-0.2
		c0.153-0.164,0.311-0.322,0.455-0.496c0.062,0.128,0.115,0.259,0.181,0.385C270.268,411.094,270.122,411.203,269.974,411.307z"/>
</g>
<g>
	<g>
		<path style="fill:#FFFFFF;" d="M316.715,133.618c0,0.852-0.69,1.542-1.542,1.542c-0.851,0-1.541-0.69-1.541-1.542
			c0-0.851,0.69-1.541,1.541-1.541C316.024,132.077,316.715,132.767,316.715,133.618z"/>
	</g>
	<g>
		<path style="fill:#FFFFFF;" d="M142.582,144.138c0,0.903-0.732,1.635-1.635,1.635c-0.903,0-1.635-0.732-1.635-1.635
			c0-0.903,0.732-1.635,1.635-1.635C141.85,142.503,142.582,143.235,142.582,144.138z"/>
	</g>
	<g>
		<path style="fill:#FFFFFF;" d="M100.413,57.511c0,0.963-0.781,1.744-1.744,1.744c-0.963,0-1.743-0.781-1.743-1.744
			c0-0.963,0.78-1.744,1.743-1.744C99.632,55.767,100.413,56.548,100.413,57.511z"/>
	</g>
	<g>
		<path style="fill:#FFFFFF;" d="M29.579,70.967c0,0.472-0.383,0.854-0.855,0.854c-0.472,0-0.854-0.383-0.854-0.854
			c0-0.472,0.382-0.855,0.854-0.855C29.196,70.112,29.579,70.495,29.579,70.967z"/>
	</g>
	<g>
		<path style="fill:#FFFFFF;" d="M40.465,129.493c0,0.612-0.497,1.108-1.108,1.108c-0.612,0-1.108-0.496-1.108-1.108
			c0-0.612,0.496-1.108,1.108-1.108C39.969,128.384,40.465,128.88,40.465,129.493z"/>
	</g>
	<g>
		<path style="fill:#FFFFFF;" d="M35.003,231.51c0,1.129-0.914,2.043-2.043,2.043c-1.128,0-2.043-0.914-2.043-2.043
			c0-1.128,0.914-2.043,2.043-2.043C34.088,229.467,35.003,230.382,35.003,231.51z"/>
	</g>
	<g>
		<path style="fill:#FFFFFF;" d="M107.008,265.423c0,0.661-0.536,1.197-1.197,1.197c-0.662,0-1.198-0.536-1.198-1.197
			c0-0.661,0.536-1.197,1.198-1.197C106.472,264.226,107.008,264.762,107.008,265.423z"/>
	</g>
	<g>
		<path style="fill:#FFFFFF;" d="M207.678,62.14c0,1.99-1.613,3.603-3.602,3.603c-1.99,0-3.603-1.613-3.603-3.603
			c0-1.99,1.613-3.602,3.603-3.602C206.064,58.538,207.678,60.15,207.678,62.14z"/>
	</g>
	<g>
		<path style="fill:#FFFFFF;" d="M363.378,224.245c0,0.942-0.764,1.707-1.706,1.707c-0.943,0-1.707-0.764-1.707-1.707
			s0.764-1.706,1.707-1.706C362.614,222.539,363.378,223.303,363.378,224.245z"/>
	</g>
	<g>
		<circle style="fill:#FFFFFF;" cx="428.211" cy="240.67" r="2.184"/>
	</g>
	<g>
		<path style="fill:#FFFFFF;" d="M412.838,138.007c0,1.072-0.87,1.942-1.942,1.942c-1.073,0-1.942-0.87-1.942-1.942
			c0-1.073,0.869-1.943,1.942-1.943C411.968,136.064,412.838,136.934,412.838,138.007z"/>
	</g>
	<g>
		<path style="fill:#FFFFFF;" d="M419.886,68.854c0,1.225-0.993,2.218-2.219,2.218c-1.225,0-2.218-0.993-2.218-2.218
			c0-1.225,0.993-2.218,2.218-2.218C418.893,66.636,419.886,67.629,419.886,68.854z"/>
	</g>
</g>
</svg>
