<?xml version="1.0" encoding="utf-8"?>
<!-- Generator: Adobe Illustrator 27.5.0, SVG Export Plug-In . SVG Version: 6.00 Build 0)  -->
<svg version="1.1" xmlns="http://www.w3.org/2000/svg" xmlns:xlink="http://www.w3.org/1999/xlink" x="0px" y="0px"
	 viewBox="0 0 750 500" style="enable-background:new 0 0 750 500;" xml:space="preserve">
<g id="BACKGROUND">
	<rect style="fill:#FFFFFF;" width="750" height="500"/>
</g>
<g id="OBJECTS">
	<g>
		<g>
			<path style="fill:#E6F5FC;" d="M625.201,240.714c-0.228,1.093-0.486,2.201-0.759,3.308c-1.396,5.797-3.096,11.655-5.13,17.589
				c-19.456,56.713-57.593,90.859-104.078,109.86c-1.077,0.425-2.17,0.865-3.263,1.29c-28,10.927-58.914,16.512-90.526,18.333
				c-1.032,0.061-2.064,0.121-3.111,0.167c-13.082,0.652-26.27,0.668-39.427,0.152c-1.032-0.03-2.064-0.076-3.096-0.121
				c-13.461-0.607-26.862-1.745-40.035-3.308c-1.108-0.137-2.216-0.273-3.323-0.41c-29.776-3.703-58.307-9.5-83.636-16.026
				c-5.296-1.366-10.456-2.944-15.48-4.735c-1.002-0.334-1.988-0.683-2.959-1.062c-16.421-6.116-31.339-14.342-44.724-24.115
				c-0.926-0.668-1.836-1.336-2.747-2.049c-72.678-54.922-99.085-154.827-76.761-199.809c13.112-26.437,34.526-36.119,61.054-34.723
				c1.138,0.061,2.291,0.137,3.46,0.243c11.716,1.017,24.373,4.082,37.713,8.757c0.971,0.319,1.943,0.668,2.929,1.032
				c19.547,7.102,40.49,17.498,62.025,29.73c25.314,14.402,43.586,20.093,58.17,19.608c1.078-0.03,2.109-0.106,3.141-0.212
				c21.535-2.109,35.012-18.287,52.479-39.534c0.744-0.895,1.487-1.791,2.231-2.716c2.459-2.975,4.978-6.025,7.634-9.151
				c7.209-8.499,14.797-15.813,22.643-22.021c0.789-0.622,1.593-1.244,2.383-1.836c22.476-17.028,47.046-25.132,71.161-25.89
				c1.063-0.03,2.14-0.061,3.202-0.061c18.439-0.091,36.529,4.097,53.162,11.883c0.911,0.41,1.821,0.85,2.732,1.305
				c5.281,2.61,10.395,5.585,15.328,8.924c0.835,0.562,1.67,1.123,2.489,1.73c32.537,23.007,55.969,61.145,58.898,107.462
				c0.076,1.062,0.137,2.125,0.167,3.187C629.738,211.257,628.524,225.735,625.201,240.714z"/>
			<g>
				<path style="fill:#FFFFFF;" d="M629.146,197.492c-16.041,6.146-36.256,14.691-57.654,25.769
					c-45.407,23.523-105.626,63.558-134.582,120.757c-7.694,15.206-12.854,30.914-15.465,47.076
					c-1.032,0.061-2.064,0.121-3.111,0.167c2.626-16.709,7.922-32.932,15.874-48.624c29.32-57.927,90.116-98.372,135.948-122.092
					c21.884-11.337,42.554-20.033,58.823-26.24C629.055,195.368,629.116,196.43,629.146,197.492z"/>
				<path style="fill:#FFFFFF;" d="M625.201,240.714c-0.228,1.093-0.486,2.201-0.759,3.308
					c-12.915,3.263-32.31,10.047-51.189,23.842c-23.553,17.194-50.096,48.382-58.018,103.607c-1.077,0.425-2.17,0.865-3.263,1.29
					c7.77-57.396,35.254-89.706,59.597-107.432C591.509,250.791,612.028,243.886,625.201,240.714z"/>
				<path style="fill:#FFFFFF;" d="M378.907,391.413c-1.032-0.03-2.064-0.076-3.096-0.121c-0.364-8.453-1.912-20.579-6.875-34.146
					c-8.681-23.675-29.836-56.743-81.39-79.842c-51.614-23.144-83.287-55.074-91.603-92.377
					c-5.221-23.371-0.911-47.486,12.429-70.872c0.971,0.319,1.943,0.668,2.929,1.032c-13.203,22.886-17.483,46.424-12.399,69.188
					c8.104,36.316,39.185,67.534,89.888,90.252c52.6,23.584,74.196,57.457,83.044,81.739
					C376.98,370.364,378.573,382.793,378.907,391.413z"/>
				<path style="fill:#FFFFFF;" d="M185.654,341.635c-0.926-0.668-1.836-1.336-2.747-2.049c3.491-23.584,1.73-60.113-24.54-103.668
					c-21.929-36.392-21.034-78.051,2.61-120.514c2.003-3.582,4.082-7.042,6.222-10.35c1.138,0.061,2.291,0.137,3.46,0.243
					c-2.428,3.703-4.811,7.588-7.072,11.655c-23.371,42.023-24.251,81.511-2.625,117.387
					C188.28,279.641,189.539,317.566,185.654,341.635z"/>
				<path style="fill:#FFFFFF;" d="M335.776,387.983c-1.108-0.137-2.216-0.273-3.323-0.41c-7.133-20.973-21.823-50.142-50.354-63.33
					c-8.802-4.067-16.846-4.082-23.902-0.015c-12.384,7.148-20.139,25.526-24.859,42.584c-1.002-0.334-1.988-0.683-2.959-1.062
					c4.887-17.513,13.036-36.499,26.3-44.147c7.952-4.583,16.936-4.629,26.695-0.106
					C313.498,335.413,328.628,366.388,335.776,387.983z"/>
				<path style="fill:#FFFFFF;" d="M570.081,86.843c-4.614,8.089-9.258,17.286-14.205,27.089
					c-22.992,45.604-51.614,102.378-114.549,116.598c-8.438,1.912-16.557,2.868-24.297,2.868c-17.741,0-33.585-5.008-47.289-14.994
					c-18.485-13.461-30.504-34.253-38.244-53.982c1.078-0.03,2.109-0.106,3.141-0.212c7.573,19,19.213,38.851,36.893,51.735
					c18.94,13.795,42.205,17.711,69.127,11.625c61.539-13.916,89.812-69.962,112.516-115.005
					c5.008-9.925,9.713-19.243,14.417-27.454C568.427,85.675,569.261,86.236,570.081,86.843z"/>
				<path style="fill:#FFFFFF;" d="M552.264,76.189c-14.675,26.589-44.39,70.584-89.524,92.483
					c-7.102,3.445-14.023,5.16-20.746,5.16c-6.146,0-12.095-1.442-17.847-4.325c-15.965-7.998-28.121-25.936-37.03-44.83
					c0.744-0.895,1.487-1.791,2.231-2.716c8.741,18.955,20.655,37.06,36.165,44.83c11.124,5.585,23.204,5.296,35.891-0.85
					c44.36-21.52,73.635-64.817,88.128-91.057C550.443,75.294,551.354,75.734,552.264,76.189z"/>
				<path style="fill:#FFFFFF;" d="M496.37,63.001c-2.732,19.167-10.821,43.464-33.934,49.247c-2.99,0.744-5.858,1.078-8.59,1.078
					c-15.358,0-26.604-10.912-34.222-22.537c0.789-0.622,1.593-1.244,2.383-1.836c8.423,12.945,21.444,24.889,39.701,20.336
					c20.988-5.236,28.698-27.954,31.46-46.226C494.231,63.032,495.308,63.001,496.37,63.001z"/>
			</g>
		</g>
		<ellipse style="fill:#C6E7F7;" cx="377" cy="427.257" rx="290.876" ry="15.732"/>
		<ellipse style="fill:#A6D5E8;" cx="547.516" cy="427.12" rx="76.855" ry="6.563"/>
		<path style="fill:#A6D5E8;" d="M279.62,416.437c-31.706,0-58.955,2.111-71.017,5.136c-57.363,0.193-102.813,2.827-102.813,6.049
			c0,3.348,49.048,6.061,109.553,6.061c14.208,0,27.77-0.151,40.228-0.424c7.574,0.274,15.652,0.424,24.049,0.424
			c42.886,0,77.651-3.861,77.651-8.623C357.271,420.298,322.505,416.437,279.62,416.437z"/>
		<g>
			<path style="fill:#83C4DD;" d="M327.628,112.813c0,0,0.126,7.082,7.209,18.338c7.082,11.256,26.918,34.946,29.71,35.558
				c2.792,0.612,2.666-4.826-1.887-11.276C358.106,148.983,338.757,117.366,327.628,112.813z"/>
			<g>
				<g>
					<path style="fill:#F49F8E;" d="M557.332,391.996l4.47,5.86c0,0-0.795,17.68-2.235,19.865c-1.44,2.185-8.691,3.26-5.711,5.504
						s10.032,0.357,12.317-0.736c2.284-1.093,4.768-6.854,6.754-13.508c1.987-6.655,6.308-9.138,7.177-12.018
						c0.869-2.881-8.369-7.847-8.369-7.847l-3.079-5.914L557.332,391.996z"/>
					<path style="fill:#1B3151;" d="M551.039,254.577c0,0-0.172,22.348-10.036,62.185l32.249,67.534L555.42,394.54
						c0,0-39.724-46.512-40.919-77.511C513.306,286.031,551.039,254.577,551.039,254.577z"/>
				</g>
				<g>
					<path style="fill:#FEB19E;" d="M502.15,403.456l1.415,3.877c0,0-4.772,10.936-9.843,14.217c0,0-5.965,0-6.76,3.678
						c-0.795,3.678,17.995,2.486,24.755-4.673c6.761-7.158,14.416-7.854,11.036-12.626c-3.38-4.772-7.258-8.351-7.258-8.351
						l-2.187-4.374L502.15,403.456z"/>
					<path style="fill:#23406D;" d="M551.039,254.577c0,0,2.183,25.829-48.657,77.048l16.475,65.571l-20.286,7.588
						c0,0-24.039-50.081-20.207-79.295c3.832-29.214,18.249-54.002,18.249-54.002L551.039,254.577z"/>
				</g>
				<g>
					<g>
						<path style="fill:#CAD9DD;" d="M506.125,176.657c-0.303,2.86-1.021,6.215-2.259,10.067c-1.266,3.989-3.081,8.536-5.507,13.613
							c-0.029,0.046-0.044,0.092-0.073,0.138c-1.279,2.653-3.125,5.046-5.401,7.204c-4.731,4.518-11.32,8.014-18.427,10.716
							c-2.906,1.11-5.891,2.084-8.878,2.953c-4.873,1.41-9.753,2.486-14.213,3.325c-3.371,0.634-6.518,1.126-9.258,1.503
							c-6.372,0.865-10.601,1.138-10.601,1.138l-2.476-17.13l9.249-2.642l8.344-2.364l12.07-3.446l8.887-2.528l3.531-1.001
							c0,0,1.238-2.455,3.271-6.051c1.609-2.827,3.704-6.379,6.086-9.997c1.735-2.633,3.621-5.299,5.557-7.739
							c2.099-2.641,4.264-5.04,6.395-6.861c2.922-2.491,5.79-3.934,8.319-3.517C504.64,164.697,506.96,168.852,506.125,176.657z"/>
						<g>
							<path style="fill:#3C61D6;" d="M446.624,205.177c1.161,8.886,3.2,15.491,4.743,19.495c-3.371,0.634-6.518,1.126-9.258,1.503
								c-3.298-8.005-3.789-15.357-3.829-18.634L446.624,205.177z"/>
							<path style="fill:#3C61D6;" d="M467.58,199.203c1.724,8.919,4.607,15.263,6.877,19.192c-2.906,1.11-5.891,2.084-8.878,2.953
								c-4.643-7.005-6.311-15.439-6.886-19.617L467.58,199.203z"/>
							<path style="fill:#3C61D6;" d="M498.359,200.336c-0.029,0.046-0.044,0.092-0.073,0.138c-1.279,2.653-3.125,5.046-5.401,7.204
								c-8.9-3.772-15.202-10.984-18.502-15.528c1.609-2.827,3.704-6.379,6.086-9.997
								C485.825,192.757,493.557,197.98,498.359,200.336z"/>
							<path style="fill:#3C61D6;" d="M506.125,176.657c-0.303,2.86-1.021,6.215-2.259,10.067
								c-7.94-2.168-14.418-8.405-17.841-12.309c2.099-2.641,4.264-5.04,6.395-6.861
								C497.831,172.827,502.622,175.411,506.125,176.657z"/>
						</g>
					</g>
					<path style="fill:#DFEBEF;" d="M553.144,251.505c-18.469,29.593-61.463,23.341-61.463,23.341v-21.641
						c0,0-0.577-1.457-1.487-3.946c-0.273-0.744-0.561-1.578-0.896-2.504c-1.062-3.066-2.383-7.027-3.688-11.488
						c-0.303-1.017-0.592-2.064-0.896-3.141c-0.91-3.308-1.791-6.814-2.565-10.396c-1.244-5.904-2.17-11.959-2.352-17.529
						c-0.045-1.609-0.03-3.172,0.046-4.674c0.167-2.975,0.425-5.706,0.759-8.195c2.231-16.481,7.664-22.719,7.664-22.719
						c13.719-7.163,23.493-2.944,30.413,5.615c2.443,3.005,4.538,6.571,6.313,10.35c2.443,5.205,4.31,10.851,5.721,16.132
						c1.487,5.57,2.459,10.745,3.066,14.6c0.653,4.097,0.896,6.693,0.896,6.693l4.189,6.677l6.192,9.91l5.357,8.544L553.144,251.505
						z"/>
					<g>
						<path style="fill:#4D6DEE;" d="M524.992,184.578c-3.915,5.236-10.881,13.188-20.29,18.484
							c-11.018,6.222-18.894,6.829-24.904,1.138c-0.045-1.609-0.03-3.172,0.046-4.674c0.167-2.975,0.425-5.706,0.759-8.195
							c2.201,3.748,6.313,7.543,13.477,4.781c10.654-4.098,19.653-13.659,24.6-21.884
							C521.122,177.233,523.216,180.799,524.992,184.578z"/>
						<path style="fill:#4D6DEE;" d="M533.779,215.31c-5.129,4.841-14.129,11.534-28.349,16.466
							c-7.786,2.701-14.402,3.582-19.82,3.49c-1.229-4.189-2.443-8.802-3.46-13.537c4.598,1.472,12.126,1.852,23.28-3.369
							c12.869-6.025,20.973-13.127,25.283-17.65C532.201,206.28,533.172,211.455,533.779,215.31z"/>
						<path style="fill:#4D6DEE;" d="M491.68,259.473v-6.268c0,0-0.577-1.457-1.487-3.946c8.984-1.791,30.974-7.254,48.67-20.579
							l6.192,9.91C534.871,245.89,515.734,257.09,491.68,259.473z"/>
						<path style="fill:#4D6DEE;" d="M550.412,247.134l2.732,4.371c-18.469,29.593-61.463,23.341-61.463,23.341v-4.796
							C501.97,269.686,532.974,266.954,550.412,247.134z"/>
					</g>
					<path style="opacity:0.38;fill:#4D6DEE;" d="M518.618,192.075c0,0-0.698,27.378-10.016,39.883
						c-4.28,5.752-12.111,10.912-19.304,14.797c-1.062-3.066-2.383-7.027-3.688-11.488c-0.303-1.017-0.592-2.064-0.896-3.141
						l8.817-16.861L518.618,192.075z"/>
					<g>
						<path style="fill:#DFEBEF;" d="M518.618,195.809c-0.364,2.853-1.153,6.192-2.474,10.016
							c-1.351,3.961-3.263,8.468-5.797,13.492c-0.03,0.045-0.046,0.091-0.076,0.137c-1.336,2.625-3.233,4.978-5.554,7.087
							c-4.826,4.416-11.488,7.77-18.652,10.32c-2.929,1.047-5.934,1.958-8.939,2.762c-4.902,1.305-9.804,2.277-14.281,3.02
							c-3.384,0.561-6.541,0.986-9.288,1.305c-6.389,0.729-10.623,0.911-10.623,0.911l-2.109-17.179l9.303-2.443l8.392-2.185
							l12.141-3.187l8.939-2.337l3.551-0.926c0,0,1.29-2.428,3.399-5.979c1.669-2.792,3.84-6.298,6.298-9.865
							c1.791-2.595,3.733-5.221,5.721-7.618c2.155-2.595,4.371-4.947,6.541-6.723c2.975-2.428,5.873-3.809,8.392-3.339
							C517.389,183.819,519.62,188.023,518.618,195.809z"/>
						<g>
							<path style="fill:#4D6DEE;" d="M458.52,223.05c0.971,8.908,2.868,15.556,4.325,19.592c-3.384,0.561-6.541,0.986-9.288,1.305
								c-3.126-8.074-3.46-15.434-3.43-18.712L458.52,223.05z"/>
							<path style="fill:#4D6DEE;" d="M479.6,217.526c1.533,8.954,4.28,15.358,6.465,19.334c-2.929,1.047-5.934,1.958-8.939,2.762
								c-4.492-7.102-5.979-15.571-6.465-19.759L479.6,217.526z"/>
							<path style="fill:#4D6DEE;" d="M510.347,219.316c-0.03,0.045-0.046,0.091-0.076,0.137c-1.336,2.625-3.233,4.978-5.554,7.087
								c-8.818-3.961-14.964-11.306-18.166-15.92c1.669-2.792,3.84-6.298,6.298-9.865
								C497.978,211.47,505.597,216.858,510.347,219.316z"/>
							<path style="fill:#4D6DEE;" d="M518.618,195.809c-0.364,2.853-1.153,6.192-2.474,10.016
								c-7.892-2.337-14.235-8.711-17.574-12.687c2.155-2.595,4.371-4.947,6.541-6.723
								C510.408,191.802,515.143,194.488,518.618,195.809z"/>
						</g>
					</g>
					<path style="fill:#FFFFFF;" d="M508.594,166.354c0,0-2.402,19.207-13.499,21.032c-11.098,1.825-7.493-17.073-7.493-17.073
						S495.345,161.636,508.594,166.354z"/>
				</g>
				<g>
					<linearGradient id="SVGID_1_" gradientUnits="userSpaceOnUse" x1="492.651" y1="154.7256" x2="475.9573" y2="124.7527">
						<stop  offset="0" style="stop-color:#1F3A65"/>
						<stop  offset="1" style="stop-color:#294A7A"/>
					</linearGradient>
					<path style="fill:url(#SVGID_1_);" d="M501.688,163.163c0,0,3.039-2.917,1.389-6.283c-1.65-3.367,2.244-3.895,2.64-6.667
						c0.396-2.772-3.433-6.337-1.716-10.298c1.716-3.961-0.412-13.833-9.768-12.513c-9.355,1.32-8.32-5.97-14.261-3.066
						c-5.941,2.905-6.551,6.034-11.156,6.271c-5.133,0.264-9.969,9.902-3.962,15.381c5.41,4.934,5.281,11.666,11.949,9.506
						C483.472,153.333,501.688,163.163,501.688,163.163z"/>
					<path style="fill:#FEB19E;" d="M505.416,167.566c0,0-2.963,12.785-9.997,15.051c-4.579,1.489-5.371-0.887-5.371-3.549
						c0-1.426,0.222-2.931,0.222-3.961c0-2.978-0.396-4.959-2.772-7.129l8.476-14.259l1.299-2.186
						C497.273,151.533,499.38,162.718,505.416,167.566z"/>
					<path style="fill:#FF856A;" d="M490.048,179.068c0-1.426,0.222-2.931,0.222-3.961c0-2.978-0.396-4.959-2.772-7.129
						l8.476-14.259c0.57,0.713,1.061,1.79,1.489,3.264C501.44,170.782,492.884,177.325,490.048,179.068z"/>
					<path style="fill:#FEB19E;" d="M469.873,145.493c0,0,3.593,17.638,13.62,25.671c1.689,1.353,4.04,1.52,5.853,0.34
						c3.75-2.44,9.459-8.171,7.922-19.971c0,0,2.905-2.839,0.132-7.063c-2.773-4.225-5.413-0.198-2.575,5.479
						c0,0-2.706,0.528-4.357-1.848s-3.426-0.445-4.25-7.129c0,0-2.39,5.045-5.99,4.088c-4.507-1.198-3.369,2.469-6.531,2.406
						C472.369,147.439,469.873,145.493,469.873,145.493z"/>
				</g>
				<g>
					<path style="fill:#F29181;" d="M429.252,211.711l-16.108,0.905c0,0-6.413-7.161-13.877-6.806l14.576,17.743l17.342,1.526
						L429.252,211.711z"/>
					<path style="fill:#F29181;" d="M397.355,203.23c0,0-4.911-1.07-5.437,0.039c-0.527,1.109,3.173,4.615,3.173,4.615l7.01-0.592
						L397.355,203.23z"/>
					<g>
						<path style="fill:#ABDAF7;" d="M326.64,112.074c0,0,8.726-12.141,30.542,0c21.816,12.141,24.092,18.97,36.992,21.626
							c12.9,2.656,17.642,6.639,26.368,12.9c8.726,6.26,18.211,1.328,19.35,4.932c1.138,3.604-18.211,8.537-28.076,4.363
							c-9.865-4.173-25.42-7.398-32.818-4.173c-7.398,3.225-11.762,14.986-11.762,14.986s-2.683-8.532-12.71-25.42
							C340.109,117.007,326.64,112.074,326.64,112.074z"/>
						<path style="fill:#70B2DD;" d="M442.688,261.056l-78.142-95.12l2.345-1.927l78.143,95.121
							c0.532,0.647,0.438,1.604-0.209,2.135l0,0C444.177,261.798,443.22,261.704,442.688,261.056z"/>
						<path style="fill:#70B2DD;" d="M366.64,168.651c-5.795,0.001-20.068-19.049-24.572-25.269
							c-4.855-6.705-20.328-28.843-15.625-32.251c4.695-3.416,20.912,18.204,25.764,24.907l0,0
							c4.855,6.705,20.328,28.844,15.625,32.251C367.492,168.536,367.092,168.651,366.64,168.651z M328.51,113.986
							c0.557,3.226,5.977,13.752,16.015,27.615c10.038,13.863,18.346,22.297,21.239,23.834c-0.557-3.228-5.977-13.753-16.015-27.615
							l0,0C339.711,123.956,331.403,115.521,328.51,113.986z"/>
					</g>
					<path style="fill:#F49F8E;" d="M401.295,219.931c0,0,4.457,3.751,10.587,3.626l-12.615-16.546L401.295,219.931z"/>
					<path style="fill:#FEB19E;" d="M440.994,229.053l-10.113,1.3c0,0-11.477-5.786-13.943-6.734s5.976,8.821,5.976,8.821
						s-6.355-1.328-8.062,0.474c-1.707,1.802,0,5.122,0,5.122s-1.802,4.363,1.328,5.911c0,0,0.854,2.91,2.94,3.953
						c0,0,8.157,1.578,15.935-3.953l7.653-0.94L440.994,229.053z"/>
					<path style="fill:#FEB19E;" d="M406.947,218.526c0,0,2.213-2.15,1.265-3.098c-0.949-0.949-3.541-0.316-3.541-0.316
						s2.829-1.834,1.889-3.604c-0.94-1.771-4.418-1.075-4.418-1.075s2.023-1.707,0-3.541c-2.023-1.834-7.335-2.34-8.22-1.328
						c-0.885,1.012-0.632,3.351,1.202,4.806c1.834,1.454,0.126,4.679,1.96,5.944c1.834,1.265,2.466,1.265,3.162,2.782
						C400.94,220.613,403.026,221.688,406.947,218.526z"/>
				</g>
			</g>
		</g>
		<g>
			<g>
				<g>
					<path style="fill:#70B2DD;" d="M339.785,247.898c-9.171,0-19.218-3.887-29.958-11.604
						c-35.053-25.186-45.995-19.234-46.1-19.173l-0.594-0.969c0.447-0.281,11.483-6.559,47.359,19.218
						c12.748,9.162,24.449,12.833,34.785,10.887c11.458-2.146,17.11-10.65,17.167-10.734l0.954,0.619
						c-0.237,0.366-5.949,8.983-17.888,11.229C343.643,247.722,341.733,247.898,339.785,247.898z"/>
					
						<rect x="364.508" y="229.269" transform="matrix(0.5756 -0.8177 0.8177 0.5756 -31.3458 399.2793)" style="fill:#70B2DD;" width="8.954" height="1.138"/>
					<path style="fill:#70B2DD;" d="M171.313,253.969c-6.477,0-12.626-1.956-18.348-5.848c-12.461-8.476-23.402-11.639-32.534-9.404
						c-9.276,2.277-13.247,9.507-13.286,9.58l-1.002-0.536c0.169-0.316,4.255-7.753,14.017-10.149
						c9.454-2.321,20.703,0.9,33.445,9.567c7.327,4.984,15.372,6.684,23.916,5.051c24.643-4.705,45.856-35.602,46.066-35.914
						l0.943,0.64c-0.215,0.314-21.694,31.599-46.796,36.392C175.561,253.762,173.42,253.969,171.313,253.969z"/>
					<g>
						<path style="fill:#70B2DD;" d="M151.116,185.036c0,0,0.974-4.024-0.559-5.433C149.024,178.195,146.74,180.819,151.116,185.036
							z"/>
						<path style="fill:#70B2DD;" d="M149.623,186.463c0,0-3.885-8.109-7.818-6.1C139.439,181.572,146.826,184.404,149.623,186.463z
							"/>
						<path style="fill:#70B2DD;" d="M148.46,187.577c0,0-4.527-1.375-4.817,0.109C143.354,189.171,145.937,189.371,148.46,187.577z
							"/>
					</g>
					<g>
						<path style="fill:#70B2DD;" d="M293.661,124.183c0,0-3.94-1.271-4.341-3.314C288.919,118.826,292.349,118.248,293.661,124.183
							z"/>
						<path style="fill:#70B2DD;" d="M295.657,123.655c0,0-4.887-7.548-1.119-9.853
							C296.804,112.416,295.362,120.194,295.657,123.655z"/>
						<path style="fill:#70B2DD;" d="M297.215,123.245c0,0,1.191-4.579,2.609-4.051S300.062,122.03,297.215,123.245z"/>
					</g>
					<path style="fill:#70B2DD;" d="M217.425,155.263c-0.065-0.144-6.693-14.398-26.791-22.025
						c-9.15-3.472-13.685-9.841-12.13-17.035c1.3-6.005,6.681-10.646,11.899-10.288c0.159,0.009,0.314,0.021,0.464,0.034
						c1.57-1.509,4.381-2.995,9.401-3.695l0.157,1.126c-3.498,0.488-6.248,1.455-8.04,2.785c2.639,0.538,3.551,1.724,3.824,2.717
						c0.471,1.707-0.76,3.613-2.22,4.614c-1.254,0.858-2.515,0.992-3.378,0.351c-1.138-0.845-2.11-2.748-1.553-4.926
						c0.138-0.541,0.397-1.195,0.876-1.884c-0.024-0.001-0.049-0.001-0.074-0.001c-4.569,0-9.1,4.114-10.242,9.408
						c-1.424,6.595,2.844,12.476,11.421,15.73c20.563,7.804,27.36,22.474,27.425,22.62L217.425,155.263z M191.301,107.141
						c-0.566,0.631-0.953,1.32-1.141,2.062c-0.427,1.67,0.286,3.105,1.129,3.732c0.533,0.391,1.412,0.062,2.056-0.378
						c1.1-0.753,2.091-2.19,1.767-3.372C194.821,108.13,193.479,107.419,191.301,107.141z"/>
					<g>
						<g>
							<path style="fill:#70B2DD;" d="M285.667,182.794c-0.132-0.005-0.263-0.008-0.396-0.012c-0.145,0-0.254,0.024-0.322,0.074
								c-0.07,0.048-0.104,0.145-0.104,0.286c0.005,1.136,0.106,2.836,0.278,5.102c0.164,2.266,0.233,3.97,0.228,5.103
								c-0.001,0.225-0.002,0.45-0.003,0.674c0.126-0.017,0.251-0.025,0.375-0.024c0.508,0.006,0.753,0.22,0.742,0.628
								c-0.001,0.034-0.002,0.068-0.003,0.102c-0.152,0.096-0.304,0.192-0.455,0.289c-0.405,0.006-0.81,0.019-1.215,0.035
								c-1.028,0.009-1.552-0.133-1.568-0.481c-0.012-0.279,0.167-0.424,0.536-0.435c0.128,0.005,0.256,0.01,0.383,0.015
								c0.178-0.004,0.268-0.141,0.263-0.414c-0.014-0.897-0.093-2.241-0.248-4.031c-0.157-1.79-0.256-3.13-0.277-4.028
								c0.001-0.594,0.002-1.188,0.003-1.782c-0.008-0.375-0.03-0.699-0.075-0.97c-0.197,0.056-0.371,0.086-0.525,0.09
								c-0.352,0.011-0.533-0.119-0.544-0.397c-0.004-0.142,0.103-0.27,0.331-0.384c0.224-0.112,0.509-0.196,0.851-0.249
								c0.639-0.098,1.113-0.14,1.423-0.139c0.307,0.001,0.53,0.05,0.663,0.146c0.134,0.095,0.194,0.207,0.192,0.334
								c-0.002,0.129-0.052,0.238-0.153,0.331C285.949,182.75,285.824,182.795,285.667,182.794z"/>
							<path style="fill:#70B2DD;" d="M291.096,193.253c0.238-1.816,0.479-3.632,0.721-5.447c0.046-0.372,0.075-0.947,0.084-1.72
								c0.01-0.775,0.023-1.265,0.048-1.476c0.026-0.207,0.123-0.362,0.302-0.456c0.177-0.097,0.36-0.131,0.547-0.107
								c1.504,0.197,2.619,1.108,3.244,2.659c0.364,0.887,0.434,1.77,0.252,2.642c-0.073,0.284-0.146,0.568-0.219,0.852
								c-0.066,0.314-0.131,0.628-0.197,0.941c-0.242,1.146-0.456,1.897-0.645,2.26c-0.19,0.358-0.37,0.657-0.538,0.89
								c-0.168,0.233-0.352,0.434-0.553,0.604c-0.464,0.386-0.996,0.672-1.606,0.863c-0.422-0.067-0.844-0.128-1.267-0.183
								C290.974,195.539,290.914,194.765,291.096,193.253z M292.24,194.396c-0.02,0.137-0.04,0.275-0.061,0.412
								c1.029,0.153,1.821-0.734,2.426-2.703c0.138-0.453,0.243-0.896,0.328-1.325c0.668-3.442,0.191-5.419-1.472-5.824
								c-0.173,0.44-0.313,1.058-0.425,1.854c-0.113,0.797-0.233,2.049-0.382,3.755C292.508,192.272,292.364,193.548,292.24,194.396
								z"/>
							<path style="fill:#70B2DD;" d="M302.183,188.911c0.114-0.48,0.226-0.96,0.338-1.44c0.248-0.783,0.663-1.087,1.251-0.892
								c0.375,0.124,0.86,0.367,1.454,0.738c0.587,0.368,0.835,0.667,0.754,0.878c-0.085,0.224-0.349,0.315-0.787,0.286
								c-0.563-0.404-1.041-0.688-1.43-0.862c-0.065,0.243-0.131,0.482-0.213,0.72c-0.299,0.781-0.596,1.561-0.893,2.342
								c-0.003,0.012-0.014,0.104-0.029,0.278c0.231,0.07,0.462,0.141,0.693,0.214c0.618,0.22,0.872,0.487,0.759,0.785
								c-0.042,0.118-0.14,0.195-0.282,0.244c-0.143,0.046-0.297,0.04-0.465-0.021c-0.168-0.061-0.35-0.138-0.537-0.227
								c-0.16-0.056-0.321-0.111-0.481-0.166c-0.106,0.432-0.23,0.856-0.369,1.268c-0.367,0.988-0.732,1.977-1.096,2.967
								c-0.209,0.618-0.303,0.933-0.281,0.94c0.423,0.128,0.845,0.263,1.266,0.403c0.429,0.16,0.591,0.376,0.488,0.64
								c-0.063,0.164-0.183,0.254-0.355,0.274c-0.175,0.018-0.353-0.005-0.536-0.072c-0.467-0.172-0.936-0.337-1.409-0.494
								c-0.146-0.048-0.262-0.142-0.352-0.283c-0.089-0.138-0.114-0.279-0.075-0.422c0.047-0.146,0.093-0.292,0.139-0.438
								c0.262-0.948,0.521-1.896,0.779-2.846C301.065,192.12,301.622,190.515,302.183,188.911z"/>
							<path style="fill:#70B2DD;" d="M311.538,198.908c-0.127,0.342-0.254,0.683-0.383,1.023c-0.074,0.121-0.203,0.448-0.393,0.979
								c-0.189,0.53-0.332,0.868-0.422,1.012c-0.003,0.004-0.005,0.009-0.008,0.013c-0.135,0.219-0.31,0.303-0.516,0.264
								c-0.214-0.13-0.358-0.267-0.437-0.406c-0.08-0.139-0.061-0.305,0.053-0.501c0.253-0.428,0.54-1.09,0.858-1.997
								c-0.493-0.386-0.994-0.763-1.502-1.132c-0.287,0.286-0.564,0.619-0.829,0.996c-0.268,0.381-0.472,0.652-0.617,0.814
								c-0.294,0.334-0.567,0.435-0.817,0.308c-0.123-0.062-0.218-0.162-0.288-0.293c-0.066-0.132-0.071-0.259-0.011-0.381
								c0.036-0.039,0.072-0.079,0.108-0.118c2.065-2.356,4.038-4.648,5.813-6.949c0.049-0.064,0.181-0.258,0.388-0.584
								c0.469-0.715,0.847-1.126,1.138-1.231c0.219,0.121,0.437,0.243,0.654,0.366c0.177,0.101,0.313,0.22,0.409,0.362
								c0.096,0.141,0.104,0.276,0.03,0.403c-0.45,0.764-0.98,1.975-1.634,3.615C312.479,197.113,311.935,198.252,311.538,198.908z
								 M310.5,198.697c0.053-0.166,0.182-0.432,0.395-0.799c0.212-0.366,0.453-0.834,0.717-1.405
								c0.266-0.572,0.56-1.244,0.878-2.022c0.316-0.775,0.546-1.34,0.695-1.686c-2.004,2.228-3.311,3.869-4.027,4.844
								C309.289,197.847,309.739,198.193,310.5,198.697z"/>
						</g>
						<path style="fill:#70B2DD;" d="M321.393,213.177c-6.183,0-13.893-2.697-21.084-7.573c-13.567-9.203-22.923-5.451-23.015-5.412
							l-0.443-1.049c0.402-0.17,9.98-4.052,24.098,5.519c9.198,6.239,19.195,8.821,25.454,6.601
							c2.728-0.971,4.501-2.761,5.269-5.321c0.969-3.229-1.746-8.855-6.755-14.001c-9.011-9.252-25.522-17.278-44.842-12.034
							l-0.298-1.1c19.794-5.365,36.719,2.856,45.955,12.34c5.371,5.518,8.13,11.453,7.031,15.121
							c-0.867,2.885-2.933,4.984-5.979,6.066C325.189,212.902,323.369,213.177,321.393,213.177z"/>
					</g>
					<g>
						<g>
							<path style="fill:#70B2DD;" d="M173.999,149.675c-0.151-0.008-0.302-0.015-0.454-0.022c-0.166-0.004-0.29,0.018-0.365,0.067
								c-0.078,0.046-0.112,0.143-0.105,0.286c0.063,1.147,0.264,2.866,0.574,5.158c0.301,2.292,0.465,4.014,0.517,5.158
								c0.01,0.227,0.021,0.454,0.031,0.68c0.143-0.014,0.286-0.018,0.429-0.014c0.582,0.019,0.874,0.241,0.882,0.653
								c0,0.034,0.001,0.069,0.002,0.103c-0.17,0.093-0.339,0.186-0.507,0.28c-0.464-0.004-0.928-0.002-1.391,0.005
								c-1.178-0.017-1.786-0.173-1.822-0.525c-0.028-0.282,0.17-0.424,0.593-0.426c0.146,0.008,0.294,0.016,0.44,0.025
								c0.204,0.001,0.3-0.135,0.281-0.411c-0.061-0.906-0.218-2.265-0.486-4.076c-0.27-1.811-0.45-3.167-0.519-4.074
								c-0.029-0.6-0.057-1.2-0.085-1.799c-0.028-0.379-0.07-0.706-0.134-0.981c-0.224,0.052-0.421,0.077-0.598,0.078
								c-0.403,0.002-0.616-0.134-0.643-0.415c-0.012-0.143,0.104-0.27,0.36-0.379c0.251-0.107,0.574-0.185,0.963-0.23
								c0.728-0.082,1.269-0.113,1.624-0.104c0.352,0.009,0.611,0.064,0.767,0.164c0.158,0.099,0.232,0.214,0.237,0.342
								c0.004,0.13-0.048,0.239-0.158,0.33C174.32,149.638,174.179,149.68,173.999,149.675z"/>
							<path style="fill:#70B2DD;" d="M180.744,160.374c0.182-1.827,0.367-3.655,0.554-5.482c0.035-0.374,0.039-0.954,0.01-1.734
								c-0.028-0.782-0.037-1.277-0.019-1.489c0.019-0.208,0.123-0.362,0.323-0.452c0.198-0.093,0.406-0.123,0.621-0.094
								c1.734,0.237,3.058,1.185,3.851,2.767c0.462,0.905,0.586,1.798,0.421,2.674c-0.069,0.285-0.139,0.569-0.208,0.854
								c-0.059,0.315-0.119,0.63-0.179,0.945c-0.22,1.151-0.428,1.903-0.626,2.266c-0.2,0.357-0.391,0.654-0.572,0.885
								c-0.181,0.231-0.382,0.43-0.604,0.596c-0.512,0.378-1.107,0.653-1.798,0.83c-0.487-0.078-0.974-0.15-1.462-0.217
								C180.719,162.678,180.612,161.895,180.744,160.374z M182.113,161.557c-0.016,0.138-0.033,0.277-0.049,0.415
								c1.187,0.18,2.051-0.695,2.645-2.667c0.135-0.454,0.234-0.899,0.309-1.33c0.594-3.458-0.052-5.466-1.978-5.918
								c-0.176,0.44-0.306,1.06-0.394,1.861c-0.089,0.802-0.165,2.063-0.25,3.782C182.314,159.418,182.213,160.704,182.113,161.557z
								"/>
							<path style="fill:#70B2DD;" d="M193.234,156.271c0.107-0.481,0.212-0.963,0.315-1.445c0.245-0.784,0.706-1.081,1.389-0.869
								c0.436,0.135,1.004,0.393,1.703,0.782c0.692,0.386,0.991,0.694,0.908,0.906c-0.086,0.224-0.384,0.309-0.888,0.268
								c-0.666-0.422-1.227-0.721-1.682-0.907c-0.062,0.244-0.126,0.484-0.208,0.721c-0.304,0.78-0.605,1.561-0.906,2.342
								c-0.003,0.012-0.01,0.104-0.019,0.28c0.269,0.076,0.537,0.154,0.805,0.234c0.719,0.238,1.024,0.514,0.909,0.811
								c-0.042,0.118-0.151,0.193-0.311,0.24c-0.161,0.043-0.338,0.033-0.534-0.033c-0.196-0.066-0.408-0.149-0.627-0.243
								c-0.186-0.061-0.373-0.12-0.56-0.179c-0.1,0.434-0.221,0.858-0.36,1.271c-0.372,0.988-0.74,1.978-1.108,2.968
								c-0.209,0.618-0.301,0.934-0.275,0.942c0.492,0.14,0.982,0.287,1.471,0.439c0.5,0.172,0.696,0.394,0.591,0.659
								c-0.064,0.164-0.197,0.252-0.393,0.267c-0.2,0.014-0.405-0.014-0.618-0.086c-0.544-0.185-1.09-0.364-1.64-0.534
								c-0.169-0.052-0.307-0.15-0.417-0.294c-0.109-0.141-0.145-0.284-0.107-0.428c0.046-0.146,0.092-0.293,0.138-0.439
								c0.253-0.951,0.503-1.902,0.75-2.853C192.114,159.483,192.672,157.876,193.234,156.271z"/>
							<path style="fill:#70B2DD;" d="M204.457,166.602c-0.128,0.342-0.257,0.683-0.388,1.023c-0.079,0.121-0.21,0.448-0.401,0.978
								c-0.19,0.53-0.337,0.868-0.433,1.011c-0.003,0.004-0.006,0.009-0.009,0.013c-0.144,0.217-0.34,0.298-0.578,0.254
								c-0.252-0.137-0.423-0.278-0.521-0.421c-0.098-0.142-0.086-0.31,0.036-0.505c0.268-0.426,0.564-1.087,0.883-1.994
								c-0.584-0.402-1.177-0.796-1.779-1.181c-0.314,0.281-0.615,0.611-0.9,0.985c-0.288,0.377-0.508,0.646-0.667,0.806
								c-0.32,0.329-0.628,0.425-0.921,0.29c-0.144-0.066-0.258-0.169-0.345-0.303c-0.082-0.135-0.094-0.264-0.031-0.385
								c0.04-0.039,0.078-0.077,0.118-0.116c2.249-2.327,4.395-4.59,6.315-6.868c0.052-0.063,0.194-0.256,0.416-0.58
								c0.502-0.71,0.915-1.115,1.243-1.214c0.257,0.127,0.513,0.256,0.768,0.387c0.207,0.106,0.37,0.23,0.487,0.375
								c0.117,0.144,0.133,0.281,0.055,0.408c-0.478,0.76-1.025,1.969-1.693,3.609C205.445,164.813,204.879,165.949,204.457,166.602
								z M203.256,166.363c0.052-0.166,0.187-0.431,0.413-0.797c0.225-0.364,0.478-0.83,0.752-1.4
								c0.276-0.571,0.579-1.242,0.905-2.019c0.324-0.775,0.559-1.339,0.713-1.685c-2.186,2.198-3.602,3.822-4.373,4.788
								C201.826,165.474,202.359,165.835,203.256,166.363z"/>
						</g>
						<path style="fill:#70B2DD;" d="M206.077,177.057c-5.045-6.308-16.544-9.318-33.239-8.703
							c-5.246,0.187-10.155-2.751-12.906-7.673c-2.616-4.682-2.644-9.983-0.074-13.833c3.25-4.871,10.244-6.955,19.699-5.853
							c30.695,3.563,35.633,25.691,35.679,25.915l-1.115,0.231c-0.045-0.215-4.849-21.552-34.695-25.017
							c-9.012-1.046-15.621,0.857-18.622,5.355c-2.331,3.495-2.285,8.34,0.12,12.646c2.543,4.55,7.044,7.278,11.871,7.09
							c17.081-0.622,28.892,2.533,34.17,9.129L206.077,177.057z"/>
					</g>
					<g>
						<g>
							<path style="fill:#70B2DD;" d="M148.333,211.119c0.122,0.297,0.244,0.594,0.366,0.891c0.055,0.094,0.109,0.188,0.164,0.282
								c0.533,0.915,0.907,1.508,1.121,1.779c0.215,0.27,0.412,0.511,0.593,0.72c0.179,0.209,0.355,0.376,0.519,0.501
								c0.167,0.126,0.339,0.233,0.52,0.326c0.36,0.183,0.708,0.18,1.048-0.01c0.141-0.078,0.275-0.247,0.406-0.505
								c0.13-0.257,0.251-0.414,0.362-0.475c0.108-0.059,0.259-0.061,0.449-0.008c0.217,0.405,0.137,0.818-0.236,1.245
								c-0.187,0.209-0.415,0.388-0.684,0.539c-0.27,0.152-0.529,0.229-0.779,0.232c-0.251,0.002-0.487-0.043-0.712-0.137
								c-0.223-0.093-0.459-0.242-0.708-0.447c-0.249-0.205-0.477-0.419-0.684-0.643c-0.202-0.233-0.419-0.507-0.65-0.824
								c-0.384-0.537-0.779-1.141-1.18-1.812c-0.274-0.471-0.548-0.941-0.822-1.412c-0.265-0.449-0.451-0.827-0.552-1.139
								c-0.102-0.111-0.188-0.225-0.258-0.344c-0.285-0.482-0.311-0.987-0.065-1.512c0.241-0.525,0.673-0.963,1.283-1.304
								c0.215-0.121,0.458-0.185,0.726-0.195c0.267-0.006,0.448,0.077,0.544,0.254c0.046,0.086,0.044,0.172-0.005,0.26
								c-0.05,0.088-0.164,0.181-0.34,0.278c-0.179,0.098-0.326,0.119-0.446,0.058c0.001,0.002,0.002,0.003,0.003,0.005
								c-0.062,0.034-0.123,0.069-0.184,0.103c-0.005-0.009-0.011-0.019-0.016-0.028c-0.522,0.293-0.795,0.641-0.816,1.032
								c-0.022,0.362,0.153,0.863,0.524,1.5C147.993,210.592,148.163,210.856,148.333,211.119z"/>
							<path style="fill:#70B2DD;" d="M158.855,208.594c0.195,0.543,0.391,1.086,0.587,1.629c0.008,0.018,0.017,0.037,0.025,0.055
								c0.049,0.256,0.133,0.517,0.253,0.785c0.12,0.267,0.186,0.55,0.203,0.841c0.018,0.293-0.03,0.579-0.135,0.86
								c-0.106,0.28-0.275,0.473-0.502,0.579c-0.232,0.107-0.475,0.129-0.735,0.067c-0.262-0.063-0.51-0.185-0.748-0.364
								c-0.239-0.18-0.486-0.411-0.74-0.694c-0.256-0.284-0.487-0.57-0.693-0.857c-0.205-0.288-0.41-0.596-0.615-0.928
								c-0.31-0.505-0.539-0.904-0.681-1.199c-0.142-0.294-0.266-0.545-0.374-0.752c-0.107-0.208-0.203-0.394-0.291-0.559
								c-0.041-0.084-0.087-0.176-0.137-0.278c-0.049-0.102-0.104-0.21-0.161-0.327c-0.11-0.237-0.208-0.452-0.288-0.645
								c-0.081-0.193-0.162-0.406-0.239-0.637c-0.077-0.232-0.138-0.442-0.17-0.629c-0.038-0.188-0.057-0.38-0.057-0.577
								c0.002-0.203,0.027-0.381,0.076-0.535c0.116-0.34,0.321-0.582,0.618-0.723c0.296-0.14,0.574-0.213,0.828-0.216
								c0.254-0.001,0.502,0.069,0.742,0.213c0.239,0.145,0.458,0.293,0.654,0.444c0.198,0.15,0.406,0.388,0.625,0.717
								c0.218,0.327,0.396,0.592,0.53,0.796c0.135,0.21,0.302,0.516,0.499,0.924c0.265,0.549,0.467,0.979,0.607,1.292
								C158.642,208.115,158.748,208.355,158.855,208.594z M155.587,204.587c-0.19-0.169-0.382-0.279-0.573-0.329
								c-0.193-0.051-0.356-0.043-0.494,0.022c-0.137,0.064-0.229,0.159-0.276,0.285c-0.049,0.126-0.064,0.281-0.053,0.465
								c0.013,0.183,0.04,0.374,0.076,0.573c0.038,0.198,0.099,0.419,0.187,0.662c0.087,0.241,0.166,0.461,0.239,0.658
								c0.077,0.19,0.165,0.399,0.264,0.628c0.171,0.377,0.305,0.671,0.401,0.881c0.009,0.018,0.017,0.036,0.026,0.053
								c0.265,0.549,0.597,1.117,0.993,1.71c0.394,0.591,0.737,1.068,1.024,1.428c0.287,0.36,0.576,0.645,0.868,0.853
								c0.292,0.21,0.532,0.269,0.727,0.178c0.169-0.078,0.24-0.299,0.214-0.663c-0.028-0.369-0.122-0.795-0.281-1.28
								c-0.291-0.864-0.509-1.465-0.659-1.799c-0.149-0.336-0.26-0.579-0.332-0.733c-0.072-0.152-0.18-0.373-0.323-0.662
								c-0.143-0.289-0.289-0.554-0.432-0.8c-0.143-0.245-0.307-0.513-0.49-0.806c-0.186-0.292-0.366-0.545-0.548-0.755
								C155.964,204.945,155.778,204.757,155.587,204.587z"/>
							<path style="fill:#70B2DD;" d="M163.879,210.531c-0.579-1.518-1.156-3.037-1.732-4.557c-0.789-1.993-1.508-3.456-2.166-4.386
								c0.072-0.25,0.219-0.417,0.439-0.505c0.356-0.14,0.708-0.196,1.056-0.166c0.349,0.028,0.655,0.127,0.925,0.292
								c0.561,0.346,0.953,0.834,1.183,1.46c0.229,0.626,0.288,1.25,0.186,1.87c-0.105,0.619-0.381,1.176-0.829,1.674
								c0.549,1.308,1.097,2.617,1.643,3.927c0.135,0.353,0.06,0.585-0.225,0.697c-0.105,0.042-0.201,0.027-0.287-0.041
								C163.987,210.726,163.921,210.639,163.879,210.531z M162.667,205.611c0.461-0.874,0.546-1.728,0.233-2.566
								c-0.001-0.002-0.002-0.005-0.003-0.007c-0.18-0.478-0.37-0.789-0.572-0.931c-0.1-0.066-0.179-0.119-0.237-0.156
								c-0.06-0.038-0.167-0.076-0.321-0.117c-0.184-0.049-0.461-0.11-0.833-0.186c0.173,0.448,0.466,1.107,0.869,1.98
								C162.206,204.502,162.493,205.163,162.667,205.611z"/>
							<path style="fill:#70B2DD;" d="M170.519,208.413c-0.241-0.847-0.481-1.694-0.721-2.541c-0.081-0.255-0.239-0.62-0.485-1.089
								c-0.246-0.471-0.413-0.858-0.509-1.162c-0.095-0.303-0.268-0.653-0.519-1.053c-0.25-0.398-0.501-0.749-0.752-1.051
								c-0.662-0.792-1.102-1.504-1.314-2.146c-0.022-0.065,0.003-0.132,0.073-0.203c0.069-0.073,0.15-0.122,0.241-0.152
								c0.089-0.029,0.219,0.039,0.385,0.204c0.165,0.167,0.34,0.391,0.525,0.673c0.183,0.282,0.359,0.567,0.529,0.854
								c0.171,0.286,0.329,0.566,0.482,0.838c0.152,0.271,0.254,0.446,0.308,0.522c-0.005-0.082-0.04-0.27-0.102-0.566
								c-0.064-0.294-0.125-0.596-0.186-0.909c-0.056-0.318-0.103-0.638-0.141-0.962c-0.086-0.741,0.002-1.152,0.264-1.231
								c0.261-0.078,0.408-0.069,0.434,0.025c0.147,0.49,0.242,1.256,0.304,2.296c0.061,1.04,0.175,1.81,0.327,2.312
								c0.032,0.155,0.065,0.311,0.097,0.466c0.02,0.066,0.04,0.131,0.06,0.197c0.376,1.147,0.752,2.294,1.126,3.442
								c0.082,0.213,0.163,0.425,0.245,0.638c0.03,0.097,0.059,0.195,0.089,0.292c0.035,0.117,0.02,0.222-0.048,0.318
								c-0.067,0.097-0.151,0.161-0.255,0.193c-0.103,0.032-0.199,0.029-0.284-0.013C170.604,208.566,170.546,208.5,170.519,208.413
								z"/>
							<path style="fill:#70B2DD;" d="M175.176,206.847c-0.644-2.591-1.286-5.182-1.927-7.774c-0.138-0.543-0.277-1.086-0.415-1.628
								c-0.026-0.104-0.02-0.182,0.016-0.24c0.037-0.054,0.162-0.108,0.367-0.16c0.208-0.052,0.428-0.061,0.661-0.023
								c0.234,0.036,0.442,0.111,0.622,0.224c0.178,0.122,0.34,0.267,0.486,0.433c0.279,0.323,0.469,0.702,0.568,1.135
								c0.101,0.433,0.095,0.956-0.009,1.57c-0.014,0.067-0.04,0.207-0.079,0.423c-0.039,0.213-0.06,0.341-0.065,0.378
								c0.159,0.657,0.546,1.466,1.135,2.44c0.202,0.328,0.48,0.774,0.836,1.344c0.354,0.569,0.575,0.931,0.665,1.084
								c0.003,0.011,0.005,0.021,0.007,0.032c0.068,0.3,0.07,0.482,0.011,0.549c-0.06,0.065-0.13,0.107-0.208,0.124
								c-0.167,0.037-0.356-0.044-0.571-0.245c-0.003-0.015-0.007-0.03-0.01-0.045c-0.23-0.795-0.793-1.952-1.728-3.45
								c-0.427-0.683-0.736-1.191-0.922-1.526c0.431,1.742,0.861,3.484,1.292,5.225c0.033,0.134,0.035,0.243,0.004,0.329
								c-0.031,0.085-0.109,0.144-0.235,0.175c-0.128,0.032-0.229,0.021-0.313-0.034c-0.08-0.055-0.134-0.134-0.162-0.237
								C175.194,206.915,175.185,206.881,175.176,206.847z M173.679,197.574c0.196,0.909,0.392,1.818,0.59,2.727
								c0.068,0.27,0.121,0.474,0.165,0.604c0.129-0.181,0.249-0.393,0.362-0.63c-0.017-0.401-0.034-0.802-0.049-1.203
								c-0.002-0.063-0.01-0.134-0.029-0.212c-0.051-0.211-0.161-0.457-0.329-0.736
								C174.152,197.741,173.915,197.559,173.679,197.574z"/>
							<path style="fill:#70B2DD;" d="M181.479,196.109c-0.089,0.012-0.178,0.025-0.267,0.037c-0.098,0.017-0.167,0.048-0.207,0.094
								c-0.041,0.045-0.051,0.123-0.032,0.233c0.151,0.877,0.436,2.177,0.854,3.906c0.413,1.73,0.691,3.034,0.838,3.909
								c0.029,0.173,0.059,0.347,0.088,0.52c0.091-0.028,0.186-0.051,0.28-0.068c0.382-0.063,0.599,0.066,0.65,0.381
								c0.004,0.026,0.008,0.053,0.012,0.079c-0.102,0.095-0.204,0.191-0.306,0.286c-0.309,0.061-0.617,0.124-0.924,0.188
								c-0.786,0.136-1.203,0.079-1.254-0.187c-0.041-0.214,0.078-0.346,0.357-0.397c0.097-0.011,0.194-0.022,0.292-0.033
								c0.133-0.024,0.185-0.141,0.148-0.351c-0.122-0.691-0.348-1.721-0.68-3.087c-0.333-1.364-0.566-2.392-0.689-3.084
								c-0.072-0.459-0.145-0.919-0.216-1.378c-0.052-0.289-0.108-0.536-0.17-0.742c-0.126,0.063-0.239,0.103-0.342,0.122
								c-0.234,0.043-0.372-0.042-0.412-0.255c-0.021-0.109,0.037-0.219,0.176-0.328c0.136-0.107,0.318-0.202,0.538-0.276
								c0.412-0.141,0.723-0.227,0.929-0.262c0.206-0.035,0.359-0.023,0.46,0.035c0.101,0.057,0.158,0.137,0.173,0.234
								c0.016,0.1-0.003,0.189-0.057,0.274C181.66,196.041,181.583,196.091,181.479,196.109z"/>
							<path style="fill:#70B2DD;" d="M189.968,202.227c-0.183,0.034-0.367,0.068-0.551,0.103c-0.325,0.031-0.496-0.08-0.522-0.337
								c-0.023-0.221,0.27-0.397,0.881-0.519c0.117-0.024,0.252-0.042,0.397-0.054c0.144-0.011,0.274,0.049,0.388,0.182
								c0.114,0.133,0.182,0.319,0.2,0.555c0.018,0.238,0.096,0.621,0.232,1.15c0.135,0.529,0.209,0.886,0.223,1.072
								c0.027,0.333-0.078,0.507-0.303,0.525c-0.229,0.018-0.387-0.063-0.48-0.248c-0.001-0.004-0.001-0.009-0.001-0.013
								c-0.052,0.027-0.149,0.087-0.292,0.18c-0.265,0.174-0.534,0.274-0.808,0.301c-0.196,0.019-0.397,0.001-0.604-0.059
								c-0.438-0.122-0.792-0.36-1.064-0.723c-0.29-0.383-0.501-0.756-0.621-1.123c-0.124-0.365-0.213-0.655-0.266-0.868
								c-0.06-0.217-0.115-0.465-0.169-0.745c-0.067-0.355-0.131-0.784-0.192-1.287c-0.043-0.333-0.086-0.665-0.129-0.998
								c-0.106-0.874-0.154-1.505-0.137-1.891c0.016-0.387,0.045-0.706,0.081-0.958c0.038-0.249,0.091-0.475,0.157-0.672
								c0.067-0.198,0.155-0.393,0.264-0.586c0.109-0.195,0.241-0.359,0.399-0.493c0.335-0.296,0.742-0.466,1.214-0.511
								c0.473-0.043,0.721,0.067,0.745,0.323c0.009,0.098-0.026,0.178-0.099,0.243c-0.076,0.065-0.168,0.104-0.278,0.114
								c-0.149-0.009-0.298-0.017-0.447-0.025c-0.383,0.044-0.664,0.28-0.839,0.711c-0.184,0.472-0.283,0.912-0.303,1.322
								c-0.019,0.41-0.027,0.74-0.028,0.989c-0.011,0.249-0.004,0.527,0.022,0.837c0.03,0.431,0.072,0.86,0.125,1.288
								c0.03,0.281,0.06,0.562,0.09,0.843c0.099,0.866,0.209,1.477,0.333,1.834c0.121,0.357,0.238,0.641,0.349,0.847
								c0.106,0.211,0.227,0.383,0.36,0.511c0.416,0.246,0.768,0.375,1.062,0.38c0.41-0.039,0.735-0.259,0.975-0.663
								C190.25,202.958,190.127,202.447,189.968,202.227z"/>
							<path style="fill:#70B2DD;" d="M197.288,204.552c-0.236,0.003-0.356-0.148-0.36-0.449c-0.025-1.734-0.09-3.338-0.199-4.814
								c-0.265-0.039-0.51-0.056-0.74-0.051c-0.229,0.005-0.436,0.047-0.616,0.123c0.015,0.507,0.08,1.272,0.188,2.296
								c0.11,1.024,0.169,1.8,0.183,2.322c0.004,0.09-0.022,0.173-0.075,0.25c-0.052,0.077-0.126,0.117-0.215,0.12
								c-0.254,0.012-0.466-0.762-0.645-2.321c-0.24-2.113-0.426-4.673-0.544-7.681c-0.007-0.164,0.079-0.251,0.254-0.257
								c0.095-0.003,0.2,0.017,0.313,0.06c0.112,0.043,0.193,0.09,0.238,0.142c-0.026,0.326-0.032,0.669-0.019,1.028
								c0.064,0.934,0.128,1.868,0.191,2.802c0.001,0.171,0.001,0.343,0.001,0.514c0.003,0.13,0.019,0.247,0.04,0.353
								c0.476-0.048,0.953-0.093,1.431-0.134c-0.043-1.493-0.087-2.987-0.132-4.48c-0.002-0.12-0.004-0.24-0.006-0.36
								c0.395-0.007,0.632,0.147,0.71,0.458c0.037,0.151,0.058,0.535,0.063,1.152c0.005,0.619,0.068,1.929,0.176,3.931
								c0.11,2.002,0.161,3.503,0.169,4.497c0.001,0.122-0.038,0.233-0.113,0.339C197.501,204.496,197.405,204.551,197.288,204.552z
								"/>
							<path style="fill:#70B2DD;" d="M203.455,196.543c-0.04,0.585-0.08,1.171-0.12,1.757c-0.009,1.048-0.02,2.095-0.032,3.143
								c-0.003,0.819-0.007,1.638-0.013,2.457c-0.023,0.444-0.172,0.659-0.439,0.645c-0.153-0.008-0.266-0.083-0.33-0.229
								c-0.067-0.146-0.098-0.305-0.089-0.477c0.069-0.725,0.139-1.45,0.21-2.174c0.021-0.471,0.02-1.18-0.005-2.131
								c-0.025-0.947-0.027-1.658-0.007-2.129c0.025-0.397,0.049-0.794,0.074-1.191c0.028-0.654-0.001-1.08-0.087-1.279
								c-0.28,0.013-0.56,0.027-0.839,0.042c-0.131-0.005-0.245-0.044-0.346-0.115c-0.102-0.073-0.151-0.163-0.148-0.271
								c0.003-0.109,0.13-0.197,0.38-0.266c0.254-0.072,0.56-0.118,0.916-0.139c0.624-0.036,1.15-0.04,1.575-0.016
								c0.127,0.007,0.242,0.051,0.34,0.13c0.1,0.08,0.145,0.175,0.14,0.286c-0.007,0.111-0.059,0.196-0.154,0.255
								c-0.094,0.058-0.208,0.084-0.338,0.077c-0.183-0.019-0.365-0.038-0.548-0.057c-0.07-0.003-0.124-0.004-0.158-0.001
								C203.479,195.386,203.485,195.948,203.455,196.543z"/>
						</g>
						<path style="fill:#70B2DD;" d="M152.325,224.087c-3.541,0-6.887-0.954-9.571-2.857c-3.389-2.402-5.021-5.895-4.476-9.583
							c0.575-3.875,4.126-11.246,21.467-17.045c37.761-12.63,55.132,1.818,55.305,1.967l-0.743,0.863
							c-0.166-0.142-17.107-14.151-54.201-1.75c-12.245,4.096-19.791,9.976-20.703,16.133c-0.48,3.247,0.98,6.34,4.007,8.486
							c3.721,2.641,10.837,4.264,18.638,0.161c20.941-11.019,41.693-14.989,52.856-10.122l-0.455,1.043
							c-10.859-4.738-31.224-0.777-51.87,10.087C159.26,223.215,155.704,224.087,152.325,224.087z"/>
					</g>
					<g>
						<g>
							<path style="fill:#70B2DD;" d="M269.127,158.626c0.165,0.276,0.331,0.551,0.496,0.826c0.069,0.085,0.137,0.169,0.205,0.253
								c0.666,0.823,1.127,1.351,1.381,1.586c0.253,0.235,0.487,0.441,0.697,0.62c0.211,0.178,0.408,0.317,0.59,0.415
								c0.185,0.097,0.371,0.179,0.564,0.242c0.384,0.126,0.727,0.07,1.037-0.169c0.126-0.098,0.236-0.286,0.328-0.56
								c0.093-0.274,0.19-0.449,0.291-0.524c0.099-0.075,0.249-0.099,0.444-0.074c0.273,0.37,0.253,0.789-0.053,1.267
								c-0.154,0.234-0.352,0.445-0.597,0.634c-0.244,0.191-0.489,0.306-0.735,0.346c-0.247,0.04-0.49,0.032-0.725-0.027
								c-0.236-0.058-0.493-0.168-0.769-0.332c-0.277-0.164-0.537-0.34-0.777-0.529c-0.234-0.198-0.492-0.435-0.771-0.713
								c-0.464-0.471-0.948-1.005-1.448-1.607c-0.344-0.422-0.687-0.845-1.03-1.267c-0.333-0.402-0.571-0.748-0.72-1.041
								c-0.117-0.093-0.22-0.193-0.308-0.299c-0.356-0.431-0.455-0.93-0.284-1.495c0.167-0.563,0.54-1.072,1.108-1.512
								c0.199-0.155,0.435-0.26,0.704-0.312c0.268-0.049,0.461,0.005,0.583,0.166c0.06,0.077,0.067,0.165,0.03,0.259
								c-0.037,0.095-0.139,0.205-0.304,0.332c-0.167,0.127-0.31,0.17-0.441,0.13c0.001,0.002,0.002,0.003,0.003,0.005
								c-0.057,0.044-0.114,0.088-0.171,0.133c-0.007-0.009-0.013-0.017-0.02-0.026c-0.484,0.376-0.71,0.768-0.675,1.162
								c0.03,0.364,0.278,0.833,0.741,1.407C268.71,158.157,268.919,158.392,269.127,158.626z"/>
							<path style="fill:#70B2DD;" d="M279.316,154.575c0.261,0.515,0.523,1.029,0.786,1.543c0.01,0.017,0.021,0.035,0.031,0.052
								c0.079,0.248,0.197,0.495,0.349,0.747c0.152,0.251,0.254,0.522,0.307,0.809c0.053,0.289,0.044,0.578-0.025,0.87
								c-0.07,0.291-0.212,0.504-0.423,0.638c-0.215,0.137-0.453,0.189-0.72,0.162c-0.266-0.029-0.531-0.116-0.79-0.262
								c-0.26-0.146-0.535-0.343-0.827-0.589c-0.292-0.248-0.56-0.499-0.803-0.756c-0.241-0.257-0.487-0.536-0.736-0.836
								c-0.376-0.458-0.657-0.823-0.838-1.096c-0.179-0.272-0.337-0.504-0.472-0.695c-0.135-0.19-0.254-0.363-0.364-0.514
								c-0.052-0.077-0.111-0.163-0.173-0.257c-0.063-0.095-0.131-0.194-0.204-0.302c-0.142-0.219-0.267-0.419-0.372-0.6
								c-0.107-0.18-0.214-0.382-0.322-0.6c-0.108-0.22-0.191-0.421-0.251-0.602c-0.061-0.182-0.102-0.372-0.13-0.567
								c-0.024-0.204-0.02-0.384,0.01-0.544c0.073-0.355,0.254-0.629,0.536-0.811c0.284-0.184,0.555-0.294,0.812-0.334
								c0.257-0.038,0.517-0.002,0.776,0.108c0.258,0.112,0.498,0.228,0.713,0.352c0.217,0.123,0.454,0.331,0.716,0.628
								c0.261,0.296,0.469,0.537,0.629,0.721c0.16,0.191,0.366,0.474,0.612,0.854c0.334,0.51,0.587,0.913,0.764,1.206
								C279.045,154.126,279.18,154.35,279.316,154.575z M275.547,151.027c-0.213-0.142-0.421-0.224-0.618-0.247
								c-0.201-0.023-0.366,0.008-0.496,0.092c-0.131,0.084-0.211,0.191-0.244,0.324c-0.034,0.132-0.032,0.29,0.004,0.472
								c0.037,0.18,0.085,0.368,0.148,0.56c0.064,0.192,0.154,0.402,0.271,0.633c0.116,0.228,0.225,0.435,0.323,0.621
								c0.102,0.178,0.216,0.374,0.345,0.588c0.221,0.35,0.392,0.624,0.515,0.82c0.011,0.016,0.022,0.033,0.033,0.049
								c0.336,0.509,0.742,1.027,1.213,1.561c0.472,0.533,0.873,0.96,1.207,1.279c0.333,0.32,0.657,0.562,0.974,0.73
								c0.315,0.171,0.564,0.196,0.745,0.081c0.156-0.098,0.2-0.327,0.127-0.686c-0.074-0.362-0.221-0.774-0.441-1.234
								c-0.4-0.819-0.69-1.389-0.882-1.701c-0.191-0.314-0.331-0.541-0.423-0.685c-0.089-0.142-0.225-0.348-0.405-0.616
								c-0.181-0.267-0.357-0.513-0.531-0.738c-0.173-0.224-0.37-0.47-0.59-0.736c-0.222-0.265-0.435-0.492-0.644-0.676
								C275.971,151.331,275.76,151.169,275.547,151.027z"/>
							<path style="fill:#70B2DD;" d="M281.229,149.987c-0.366-0.752-0.732-1.504-1.098-2.257c-0.014-0.026-0.028-0.051-0.041-0.077
								c-0.216-0.399-0.219-0.654-0.014-0.764c0.187-0.099,0.638,0.139,1.339,0.728c1.275,1.066,3.1,2.981,5.372,5.801
								c0.014,0.018,0.028,0.037,0.042,0.055c-0.676-1.437-1.35-2.874-2.024-4.312c-0.586-1.213-1.173-2.424-1.759-3.637
								c-0.044-0.233,0.063-0.409,0.321-0.532c0.256-0.122,0.463-0.022,0.612,0.301c0.011,0.024,0.023,0.048,0.034,0.073
								c-0.007,0.127,0.02,0.261,0.087,0.401c0.687,1.536,1.376,3.072,2.066,4.607c0.595,1.258,1.19,2.517,1.785,3.776
								c0.06,0.124,0.083,0.263,0.07,0.416c-0.013,0.154-0.069,0.254-0.171,0.303c-0.176,0.085-0.916-0.599-2.275-2.017
								c-1.359-1.416-2.813-2.935-4.363-4.556c0.697,1.322,1.393,2.643,2.09,3.964c0.203,0.385,0.536,0.944,0.997,1.676
								c0.461,0.732,0.79,1.292,0.993,1.678c0.039,0.074,0.024,0.161-0.041,0.259c-0.066,0.097-0.169,0.183-0.312,0.259
								c-0.141,0.074-0.244,0.051-0.312-0.075c-0.135-0.298-0.27-0.596-0.404-0.895c-0.224-0.415-0.609-1.076-1.165-1.978
								c-0.557-0.903-0.891-1.457-1.003-1.665C281.78,151.008,281.505,150.498,281.229,149.987z"/>
							<path style="fill:#70B2DD;" d="M289.827,146.51c0.077,0.312,0.154,0.624,0.232,0.935c0.04,0.101,0.081,0.202,0.121,0.303
								c0.394,0.983,0.679,1.624,0.851,1.923c0.174,0.299,0.334,0.565,0.482,0.799c0.148,0.233,0.296,0.423,0.44,0.572
								c0.147,0.148,0.3,0.281,0.465,0.399c0.329,0.234,0.671,0.284,1.033,0.147c0.149-0.056,0.308-0.202,0.474-0.437
								c0.167-0.233,0.31-0.372,0.428-0.414c0.116-0.041,0.264-0.021,0.443,0.061c0.153,0.434,0.01,0.828-0.419,1.193
								c-0.213,0.178-0.465,0.32-0.75,0.428c-0.286,0.109-0.551,0.145-0.799,0.112c-0.247-0.035-0.473-0.115-0.68-0.242
								c-0.206-0.125-0.417-0.307-0.633-0.546c-0.216-0.238-0.41-0.484-0.584-0.735c-0.166-0.259-0.341-0.562-0.525-0.909
								c-0.303-0.586-0.606-1.242-0.909-1.963c-0.204-0.505-0.407-1.01-0.611-1.515c-0.198-0.482-0.327-0.883-0.382-1.207
								c-0.083-0.125-0.153-0.25-0.206-0.377c-0.212-0.518-0.164-1.021,0.163-1.509c0.323-0.488,0.821-0.86,1.488-1.112
								c0.233-0.088,0.488-0.118,0.759-0.088c0.267,0.033,0.437,0.143,0.505,0.332c0.034,0.091,0.016,0.176-0.046,0.257
								c-0.064,0.08-0.191,0.155-0.384,0.226c-0.194,0.072-0.346,0.07-0.457-0.007c0.001,0.002,0.001,0.004,0.002,0.005
								c-0.067,0.025-0.134,0.051-0.201,0.076c-0.004-0.01-0.008-0.02-0.012-0.03c-0.568,0.215-0.896,0.521-0.977,0.907
								c-0.078,0.356,0.023,0.876,0.296,1.562C289.568,145.939,289.698,146.225,289.827,146.51z"/>
							<path style="fill:#70B2DD;" d="M298.464,145.34c-0.12,0.029-0.239,0.058-0.359,0.087c-0.139,0.039-0.228,0.099-0.265,0.181
								c0.389,1.35,0.779,2.7,1.168,4.05c0.454-0.158,0.701-0.242,0.741-0.253c0.515-0.143,0.806-0.092,0.868,0.139
								c0.004,0.015,0.008,0.03,0.012,0.044c-0.03,0.137-0.112,0.259-0.242,0.361c-0.133,0.107-0.253,0.177-0.363,0.217
								c-0.113,0.041-0.258,0.086-0.435,0.136c-0.139,0.039-0.278,0.079-0.417,0.119c-0.33,0.094-0.552,0.093-0.669-0.012
								c-0.053-0.05-0.095-0.122-0.123-0.221c-0.759-2.534-1.518-5.068-2.277-7.601c-0.045-0.149-0.144-0.362-0.301-0.634
								c-0.156-0.275-0.259-0.487-0.305-0.64c-0.004-0.015-0.009-0.029-0.013-0.044c0.094-0.289,0.174-0.48,0.238-0.573
								c0.364-0.15,0.729-0.298,1.096-0.444c0.152-0.043,0.321-0.047,0.5-0.01c0.178,0.036,0.286,0.119,0.32,0.247
								c0.072,0.262-0.122,0.454-0.581,0.582c-0.146,0.037-0.292,0.074-0.438,0.112c-0.075,0.021-0.129,0.039-0.162,0.053
								c0.249,0.71,0.496,1.421,0.742,2.132c0.051,0.175,0.114,0.433,0.186,0.776c0.074,0.342,0.133,0.589,0.178,0.743
								c0.048-0.023,0.115-0.058,0.196-0.106c0.184-0.102,0.333-0.171,0.442-0.201c0.111-0.03,0.221-0.022,0.327,0.028
								c0.107,0.049,0.176,0.124,0.204,0.227c0.03,0.103,0.016,0.206-0.03,0.306C298.655,145.244,298.577,145.309,298.464,145.34z"
								/>
							<path style="fill:#70B2DD;" d="M304.041,148.715c-0.32-1.593-0.638-3.187-0.955-4.781c-0.448-2.096-0.919-3.658-1.422-4.681
								c0.117-0.235,0.294-0.379,0.533-0.429c0.386-0.081,0.753-0.079,1.098,0.006c0.347,0.085,0.642,0.233,0.885,0.44
								c0.505,0.434,0.813,0.982,0.931,1.638c0.118,0.657,0.066,1.281-0.148,1.876c-0.214,0.593-0.589,1.096-1.125,1.515
								c0.324,1.382,0.645,2.763,0.964,4.146c0.075,0.371-0.04,0.587-0.34,0.65c-0.113,0.024-0.203-0.007-0.277-0.088
								C304.114,148.924,304.065,148.828,304.041,148.715z M303.67,143.66c0.615-0.788,0.853-1.616,0.685-2.494
								c0-0.003-0.001-0.005-0.001-0.007c-0.097-0.5-0.231-0.84-0.411-1.014c-0.089-0.082-0.159-0.147-0.212-0.193
								c-0.055-0.047-0.155-0.102-0.304-0.168c-0.177-0.078-0.444-0.185-0.809-0.319c0.099,0.47,0.275,1.169,0.529,2.097
								C303.399,142.49,303.572,143.19,303.67,143.66z"/>
							<path style="fill:#70B2DD;" d="M310.908,139.98c0.052,0.585,0.105,1.169,0.159,1.754c0.158,1.036,0.313,2.072,0.467,3.108
								c0.127,0.809,0.251,1.619,0.375,2.428c0.046,0.442-0.066,0.677-0.333,0.706c-0.153,0.016-0.276-0.04-0.362-0.174
								c-0.09-0.133-0.144-0.286-0.164-0.457c-0.048-0.727-0.094-1.453-0.139-2.18c-0.055-0.468-0.169-1.167-0.346-2.102
								c-0.178-0.931-0.293-1.632-0.348-2.1c-0.04-0.396-0.078-0.792-0.117-1.188c-0.077-0.65-0.174-1.067-0.293-1.249
								c-0.281,0.058-0.562,0.118-0.842,0.179c-0.133,0.017-0.256-0.003-0.369-0.056c-0.115-0.055-0.179-0.136-0.194-0.243
								c-0.014-0.108,0.099-0.217,0.341-0.325c0.245-0.113,0.548-0.209,0.905-0.288c0.627-0.138,1.159-0.225,1.594-0.27
								c0.131-0.014,0.251,0.013,0.365,0.074c0.114,0.064,0.177,0.15,0.187,0.261c0.012,0.11-0.029,0.202-0.116,0.276
								c-0.087,0.073-0.196,0.115-0.33,0.129c-0.188,0.01-0.376,0.021-0.564,0.032c-0.072,0.008-0.126,0.016-0.16,0.025
								C310.749,138.835,310.845,139.388,310.908,139.98z"/>
						</g>
						<path style="fill:#70B2DD;" d="M275.76,170.291l-0.815-0.794c0.114-0.117,11.581-11.649,33.35-15.719
							c8.332-1.558,13.55-4.565,15.09-8.694c1.14-3.055,0.159-6.663-2.841-10.435c-2.189-2.754-6.109-4.375-11.037-4.568
							c-13.235-0.513-30.051,8.694-44.9,24.644l-0.833-0.777c15.069-16.187,32.131-25.54,45.777-25.004
							c5.264,0.204,9.485,1.98,11.884,4.996c3.26,4.101,4.302,8.092,3.016,11.542c-1.688,4.523-7.203,7.778-15.947,9.412
							C287.084,158.902,275.869,170.179,275.76,170.291z"/>
					</g>
					<path style="fill:#70B2DD;" d="M342.806,190.152c-0.98,0-2.011-0.276-2.866-0.747c-1.692-0.931-2.429-2.429-1.924-3.908
						c0.634-1.86,2.222-3.081,4.47-3.437c0.204-0.033,0.416-0.058,0.634-0.074c-0.814-1.258-1.937-2.748-3.477-4.504
						c-15.513-17.699-56.329-5.919-56.739-5.801l-0.323-1.091c1.707-0.504,41.927-12.105,57.918,6.142
						c1.786,2.039,3.069,3.772,3.963,5.245c3.659,0.216,8.434,2.352,11.999,7.109l-0.91,0.682
						c-3.112-4.153-7.161-6.174-10.416-6.592c1.581,3.083,1.249,4.833,0.453,5.821C344.941,189.805,343.905,190.152,342.806,190.152
						z M343.79,183.093c-0.396,0.004-0.772,0.035-1.126,0.092c-1.28,0.202-2.94,0.831-3.572,2.68
						c-0.473,1.387,0.95,2.297,1.396,2.543c1.375,0.757,3.376,0.925,4.215-0.123C345.048,187.857,345.685,186.465,343.79,183.093z"
						/>
					<path style="fill:#70B2DD;" d="M110.814,249.944l-0.815-0.794c0.104-0.108,10.484-10.57,22.803-7.49l-0.276,1.106
						C120.84,239.839,110.913,249.843,110.814,249.944z"/>
				</g>
				<g>
					<g>
						<path style="fill:#F4D242;" d="M252.688,131.729c0-6.258-5.073-11.33-11.33-11.33c-6.258,0-11.352,5.113-11.33,11.37
							c0.011,3.107,1.273,5.92,3.308,7.96c1.584,1.589,2.743,3.55,3.329,5.716l0.914,3.379h7.427l0.865-3.2
							c0.598-2.212,1.797-4.209,3.431-5.816C251.392,137.752,252.688,134.892,252.688,131.729z"/>
						<g>
							<path style="fill:#FFFFFF;" d="M238.782,134.296c-0.813,0-1.475,0.662-1.475,1.475c0,0.813,0.662,1.475,1.475,1.475
								c0.314,0,0.606-0.099,0.845-0.267v11.845h0.63v-13.053C240.257,134.958,239.595,134.296,238.782,134.296z M238.782,136.616
								c-0.466,0-0.845-0.379-0.845-0.845c0-0.466,0.379-0.845,0.845-0.845s0.845,0.379,0.845,0.845
								C239.627,136.237,239.248,136.616,238.782,136.616z"/>
							<path style="fill:#FFFFFF;" d="M243.169,135.58c-0.813,0-1.475,0.662-1.475,1.475l-0.071,11.768h0.63l0.071-10.561
								c0.24,0.168,0.531,0.267,0.845,0.267c0.813,0,1.475-0.662,1.475-1.475C244.644,136.242,243.982,135.58,243.169,135.58z
								 M243.169,137.9c-0.466,0-0.845-0.379-0.845-0.845c0-0.466,0.379-0.845,0.845-0.845c0.466,0,0.845,0.379,0.845,0.845
								C244.014,137.521,243.635,137.9,243.169,137.9z"/>
						</g>
						<path style="fill:#383838;" d="M241.31,153.078L241.31,153.078c-2.136,0-3.868-1.732-3.868-3.868v-0.903h7.737v0.903
							C245.178,151.346,243.447,153.078,241.31,153.078z"/>
						<path style="fill:#838689;" d="M245.199,150.1h-7.801c-0.165,0-0.298-0.133-0.298-0.298l0,0c0-0.165,0.133-0.298,0.298-0.298
							h7.801c0.164,0,0.298,0.133,0.298,0.298l0,0C245.497,149.967,245.364,150.1,245.199,150.1z"/>
						<path style="fill:#838689;" d="M245.259,151.36h-7.803c-0.164,0-0.297-0.133-0.297-0.297l0,0c0-0.164,0.133-0.297,0.297-0.297
							h7.803c0.164,0,0.297,0.133,0.297,0.297l0,0C245.556,151.227,245.423,151.36,245.259,151.36z"/>
					</g>
					<path style="fill:#F4D242;" d="M227.605,131.228h-2.974c-0.316,0-0.572-0.256-0.572-0.572l0,0c0-0.316,0.256-0.572,0.572-0.572
						h2.974c0.316,0,0.572,0.256,0.572,0.572l0,0C228.177,130.972,227.921,131.228,227.605,131.228z"/>
					<path style="fill:#F4D242;" d="M228.516,125.906l-2.636-1.376c-0.28-0.146-0.389-0.492-0.242-0.772l0,0
						c0.146-0.28,0.492-0.389,0.772-0.242l2.636,1.376c0.28,0.146,0.388,0.492,0.242,0.772l0,0
						C229.142,125.944,228.796,126.052,228.516,125.906z"/>
					<path style="fill:#F4D242;" d="M228.707,135.335l-2.636,1.376c-0.28,0.146-0.388,0.492-0.242,0.772l0,0
						c0.146,0.28,0.492,0.388,0.772,0.242l2.636-1.376c0.28-0.146,0.388-0.492,0.242-0.772l0,0
						C229.332,135.297,228.987,135.189,228.707,135.335z"/>
					<path style="fill:#F4D242;" d="M231.725,121.497l-2.103-2.103c-0.223-0.223-0.223-0.585,0-0.809l0,0
						c0.223-0.223,0.585-0.223,0.809,0l2.103,2.103c0.223,0.223,0.223,0.585,0,0.809l0,0
						C232.31,121.72,231.948,121.72,231.725,121.497z"/>
					<path style="fill:#F4D242;" d="M235.362,118.698l-1.026-2.791c-0.109-0.297,0.043-0.625,0.339-0.734l0,0
						c0.296-0.109,0.625,0.043,0.734,0.34l1.026,2.791c0.109,0.297-0.043,0.625-0.339,0.734l0,0
						C235.8,119.147,235.471,118.995,235.362,118.698z"/>
					<path style="fill:#F4D242;" d="M255.227,130.846h2.974c0.316,0,0.572-0.256,0.572-0.572l0,0c0-0.316-0.256-0.572-0.572-0.572
						h-2.974c-0.316,0-0.572,0.256-0.572,0.572l0,0C254.655,130.59,254.911,130.846,255.227,130.846z"/>
					<path style="fill:#F4D242;" d="M254.316,125.525l2.636-1.376c0.28-0.146,0.389-0.492,0.242-0.772l0,0
						c-0.146-0.28-0.492-0.388-0.772-0.242l-2.636,1.376c-0.28,0.146-0.388,0.492-0.242,0.772l0,0
						C253.69,125.563,254.036,125.671,254.316,125.525z"/>
					<path style="fill:#F4D242;" d="M254.125,134.954l2.636,1.376c0.28,0.146,0.388,0.492,0.242,0.772l0,0
						c-0.146,0.28-0.492,0.389-0.772,0.242l-2.636-1.376c-0.28-0.146-0.389-0.492-0.242-0.772l0,0
						C253.5,134.916,253.845,134.807,254.125,134.954z"/>
					<path style="fill:#F4D242;" d="M251.107,121.116l2.103-2.103c0.223-0.223,0.223-0.585,0-0.809l0,0
						c-0.223-0.223-0.586-0.223-0.809,0l-2.103,2.103c-0.223,0.223-0.223,0.585,0,0.809l0,0
						C250.522,121.339,250.884,121.339,251.107,121.116z"/>
					<path style="fill:#F4D242;" d="M247.47,118.317l1.026-2.791c0.109-0.296-0.043-0.625-0.339-0.734h0
						c-0.296-0.109-0.625,0.043-0.734,0.34l-1.026,2.791c-0.109,0.296,0.043,0.625,0.339,0.734l0,0
						C247.032,118.765,247.361,118.613,247.47,118.317z"/>
					<path style="fill:#F4D242;" d="M240.786,117.436v-2.974c0-0.316,0.256-0.572,0.572-0.572l0,0c0.316,0,0.572,0.256,0.572,0.572
						v2.974c0,0.316-0.256,0.572-0.572,0.572l0,0C241.042,118.008,240.786,117.752,240.786,117.436z"/>
				</g>
			</g>
			<g>
				<g>
					<rect x="144.299" y="275.915" style="fill:#4E8FB7;" width="195.772" height="5.881"/>
					<rect x="101.996" y="275.915" style="fill:#70B2DD;" width="45.244" height="5.881"/>
					<g>
						<polygon style="fill:#70B2DD;" points="138.798,281.796 105.79,428.119 108.446,428.119 143.446,281.796 						"/>
						<polygon style="fill:#B5E1F7;" points="111.291,281.796 144.299,428.119 141.643,428.119 106.643,281.796 						"/>
					</g>
					<g>
						<polygon style="fill:#70B2DD;" points="330.622,281.796 297.614,428.119 300.27,428.119 335.27,281.796 						"/>
						<polygon style="fill:#B5E1F7;" points="303.115,281.796 336.123,428.119 333.467,428.119 298.468,281.796 						"/>
					</g>
				</g>
				<g>
					<path style="fill:#70B2DD;" d="M167.19,270.793l-13.597-34.208c-1.121-2.82,0.957-5.883,3.992-5.883h41.826
						c1.954,0,3.661,1.318,4.156,3.208l7.634,29.168l-2.782,7.714H167.19z"/>
					<path style="fill:#CEE8F4;" d="M171.11,271.552l-13.393-33.541c-0.551-1.381,0.466-2.882,1.952-2.882h39.074
						c0.936,0,1.76,0.62,2.02,1.519l8.876,30.76l-1.221,3.385L171.11,271.552z"/>
					<path style="fill:#70B2DD;" d="M193.622,275.915h-21.676c-1.649,0-3.131-1.008-3.737-2.541l-1.019-2.581h28.455
						L193.622,275.915z"/>
				</g>
			</g>
			<path style="fill:#E6F5FC;stroke:#00B1FF;stroke-width:1.5176;stroke-miterlimit:10;" d="M227.768,339.845"/>
			<g>
				<g>
					<path style="fill:#FEB19E;" d="M265.966,217.039c-6.586,10.122-20.624,5.691-20.624,5.691l-0.03-0.485l-0.471-6.587
						l5.813-10.502l2.14,0.364l8.863,1.533L265.966,217.039z"/>
					<path style="fill:#FF856A;" d="M252.793,205.521c0.273,9.394-4.492,14.463-7.482,16.724l-0.471-6.587l5.813-10.502
						L252.793,205.521z"/>
					<path style="fill:#FEB19E;" d="M225.744,187.704c0,0,0,13.891,9.837,26.272c1.791,2.254,4.746,3.149,7.502,2.318
						c3.187-0.961,7.107-3.144,8.967-8.102l2.023-12.394l-7.209-10.117L225.744,187.704z"/>
					
						<linearGradient id="SVGID_00000052793214902538028380000010388062434699715470_" gradientUnits="userSpaceOnUse" x1="239.1142" y1="196.7311" x2="241.8965" y2="161.5731">
						<stop  offset="0" style="stop-color:#1F3A65"/>
						<stop  offset="1" style="stop-color:#294A7A"/>
					</linearGradient>
					<path style="fill:url(#SVGID_00000052793214902538028380000010388062434699715470_);" d="M233.968,186.916
						c0,0-0.067,0.851-4.809,2.306c-4.743,1.454-11.319-0.19-6.829-2.909c0,0-5.754-0.126-8.79-5.533
						c-3.035-5.406,1.363-6.165,10.214-4.553c0,0,6.67-15.271,22.13-8.916c0,0-4.932-2.182-6.734-2.846
						c-1.802-0.664,14.607-7.114,18.022,9.39c0,0,2.561-2.656,3.984-0.759c1.423,1.897-2.087,5.027-2.087,5.027
						s10.908,3.509,7.683,13.374c-3.225,9.865-3.794,13.659-3.794,13.659s4.46-0.173,3.008,4.173
						c-1.452,4.346-13.727,8.726-22.073-7.019c0,0,4.742-2.751,2.276-8.062c-2.466-5.312-6.829-1.138-4.743,5.691
						C241.426,199.94,233.055,199.123,233.968,186.916z"/>
				</g>
				<g>
					<g>
						<path style="fill:#FEB19E;" d="M212.976,406.77l1.007,4.655c0,0-3.668,8.22-5.944,10.497
							c-2.277,2.276-6.537,3.418-6.537,3.418s-5.604-1.648-6.868,3.285c0,0-1.391,2.15,9.675,1.771
							c11.066-0.379,18.223-1.456,26.621-2.656c3.541-0.506-5.059-18.464-5.059-18.464l-0.632-7.967L212.976,406.77z"/>
						<path style="fill:#3471EA;" d="M236.115,339.328l-19.729,0.516l2.292,11.094l10.866,52.646l-19.729,3.794
							c-13.415-28.577-25.298-67.033-19.228-80.691c6.07-13.659,49.58-28.835,49.58-28.835l14.038,41.476H236.115z"/>
						<polygon style="fill:#215EB7;" points="218.677,350.938 207.28,339.845 216.386,339.845 						"/>
					</g>
					<g>
						<path style="fill:#2256B2;" d="M262.167,345.391l10.37,59.365h19.35c0,0-0.068-53.266-2.656-66.429L262.167,345.391z"/>
						<g>
							<path style="fill:#FEB19E;" d="M294.032,426.883c-0.106,0.258-0.349,0.44-0.804,0.501c-2.14,0.258-12.763,1.518-16.557,0
								c-2.382-0.956-1.669-7.679-0.804-12.52c0.501-2.853,1.047-5.053,1.047-5.053l-0.379-5.054h11.898l-0.258,5.054
								c0,0,2.534,11.382,3.672,12.778C292.742,423.681,294.427,425.881,294.032,426.883z"/>
							<g>
								<path style="fill:#F29181;" d="M294.032,426.883c-0.106,0.258-0.349,0.44-0.804,0.501c-2.14,0.258-12.763,1.518-16.557,0
									c-2.382-0.956-1.669-7.679-0.804-12.52c0,0,1.487-3.915,4.72-0.41C283.804,417.959,289.616,426.609,294.032,426.883z"/>
							</g>
						</g>
					</g>
				</g>
				<g>
					<polygon style="fill:#CA2B73;" points="217.334,275.915 235.735,275.915 232.447,258.02 					"/>
					
						<linearGradient id="SVGID_00000144329705565554250040000014267416238182923150_" gradientUnits="userSpaceOnUse" x1="270.1985" y1="308.7496" x2="237.3801" y2="241.4055">
						<stop  offset="0" style="stop-color:#CA2A73"/>
						<stop  offset="1" style="stop-color:#DD4368"/>
					</linearGradient>
					<path style="fill:url(#SVGID_00000144329705565554250040000014267416238182923150_);" d="M256.982,334.533
						c-9.91,3.142-17.195-25.708-21.171-47.076c-2.292-12.202-3.491-21.975-3.491-21.975l-14.994,10.441h-23.705
						c-3.415-13.476,5.023-17.286,7.209-19.289c3.491-3.233,24.661-27.393,36.62-34.784c11.944-7.391,27.317-10.639,42.857-4.75
						c15.571,5.903,20.685,41.173,20.685,41.173C305.166,324.668,272.538,329.601,256.982,334.533z"/>
					<path style="opacity:0.7;fill:#AF2567;" d="M235.811,287.457c-2.292-12.202-3.491-21.975-3.491-21.975l10.805-7.467
						C243.126,258.015,243.718,280.703,235.811,287.457z"/>
				</g>
			</g>
			<g>
				<path style="fill:#70B2DD;" d="M221.445,339.845c0,0,0.253,5.312,4.3,7.082c2.198,0.961,34.635,0.879,50.84,0.602
					c15.061-0.257,27.905-10.977,30.843-25.751l12.202-61.356c0.39-1.963-1.112-3.794-3.114-3.794h-46.805
					c-8.257,0-15.267,6.051-16.473,14.219l-7.468,50.563c-1.507,10.201-11.176,18.503-21.488,18.449L221.445,339.845z"/>
				<rect x="263.433" y="347.701" style="fill:#4E8FB7;" width="6.069" height="74.98"/>
				<path style="fill:#70B2DD;" d="M266.525,419.899l-16.508,4.149c-2.254,0.566-3.784,2.213-3.784,4.072l0,0h41.482v-0.066
					c0-1.89-1.58-3.556-3.885-4.097L266.525,419.899z"/>
			</g>
		</g>
	</g>
</g>
</svg>
